<?xml version="1.0" encoding="UTF-8" standalone="no"?>
<!-- Created with Inkscape (http://www.inkscape.org/) -->

<svg
   xmlns:dc="http://purl.org/dc/elements/1.1/"
   xmlns:cc="http://creativecommons.org/ns#"
   xmlns:rdf="http://www.w3.org/1999/02/22-rdf-syntax-ns#"
   xmlns:svg="http://www.w3.org/2000/svg"
   xmlns="http://www.w3.org/2000/svg"
   xmlns:xlink="http://www.w3.org/1999/xlink"
   xmlns:sodipodi="http://sodipodi.sourceforge.net/DTD/sodipodi-0.dtd"
   xmlns:inkscape="http://www.inkscape.org/namespaces/inkscape"
   width="800"
   height="480"
   id="svg2"
   version="1.1"
   inkscape:version="0.48.2 r9819"
   sodipodi:docname="assets.svg"
   inkscape:export-filename="/home/acoppes/workspace/prototypes/prototypes-desktop/src/main/resources/parallax/background2.png"
   inkscape:export-xdpi="90"
   inkscape:export-ydpi="90">
  <defs
     id="defs4">
    <linearGradient
       inkscape:collect="always"
       id="linearGradient3774">
      <stop
         style="stop-color:#ffff00;stop-opacity:1;"
         offset="0"
         id="stop3776" />
      <stop
         style="stop-color:#ffffce;stop-opacity:1"
         offset="1"
         id="stop3778" />
    </linearGradient>
    <linearGradient
       inkscape:collect="always"
       xlink:href="#linearGradient3774"
       id="linearGradient3780"
       x1="380.82751"
       y1="571.94586"
       x2="378.76639"
       y2="1054.7988"
       gradientUnits="userSpaceOnUse" />
  </defs>
  <sodipodi:namedview
     id="base"
     pagecolor="#ffffff"
     bordercolor="#666666"
     borderopacity="1.0"
     inkscape:pageopacity="0.0"
     inkscape:pageshadow="2"
     inkscape:zoom="0.7"
     inkscape:cx="449.80321"
     inkscape:cy="382.14286"
     inkscape:document-units="px"
     inkscape:current-layer="layer3"
     showgrid="false"
     inkscape:window-width="1440"
     inkscape:window-height="847"
     inkscape:window-x="0"
     inkscape:window-y="24"
     inkscape:window-maximized="1" />
  <metadata
     id="metadata7">
    <rdf:RDF>
      <cc:Work
         rdf:about="">
        <dc:format>image/svg+xml</dc:format>
        <dc:type
           rdf:resource="http://purl.org/dc/dcmitype/StillImage" />
        <dc:title></dc:title>
      </cc:Work>
    </rdf:RDF>
  </metadata>
  <g
     inkscape:label="background"
     inkscape:groupmode="layer"
     id="layer1"
     transform="translate(0,-572.36218)"
     style="display:none">
    <rect
       style="fill:url(#linearGradient3780);fill-opacity:1;stroke:none"
       id="rect3004"
       width="800"
       height="480"
       x="0"
       y="572.36218"
       inkscape:export-filename="/home/acoppes/workspace/prototypes/prototypes-desktop/src/main/resources/parallax/background.png"
       inkscape:export-xdpi="90"
       inkscape:export-ydpi="90" />
  </g>
  <g
     inkscape:groupmode="layer"
     id="layer2"
     inkscape:label="2ndbackground"
     style="display:none">
    <path
       style="fill:#ffffce;fill-opacity:1;stroke:#ffff00;stroke-width:5;stroke-miterlimit:4;stroke-dasharray:none"
       d="m 122.10153,40.82186 c -5.91911,0 -11.12864,2.967878 -14.25,7.5 -2.52679,-1.282804 -5.34724,-2.03125 -8.375005,-2.03125 -7.768994,0 -14.431093,4.768309 -17.21875,11.53125 -2.161166,-0.878034 -4.523584,-1.375 -7,-1.375 -10.278583,0 -18.625,8.315166 -18.625,18.59375 0,10.278584 8.346417,18.625 18.625,18.625 1.409089,0 2.774265,-0.17201 4.09375,-0.46875 0.897956,12.33482 11.186078,22.0625 23.750005,22.0625 9.85042,0 18.28137,-5.97239 21.90625,-14.5 2.52615,1.44171 5.44569,2.28125 8.5625,2.28125 9.28257,0 16.84973,-7.324197 17.28125,-16.5 1.46188,0.712417 3.10811,1.125 4.84375,1.125 6.10935,0 11.0625,-4.953147 11.0625,-11.0625 0,-6.109353 -4.95315,-11.0625 -11.0625,-11.0625 -1.65129,0 -3.21768,0.382568 -4.625,1.03125 0.0399,-0.381969 0.0625,-0.763724 0.0625,-1.15625 0,-6.109353 -4.95315,-11.0625 -11.0625,-11.0625 -0.36069,0 -0.71066,0.02876 -1.0625,0.0625 -1.69918,-7.775749 -8.6208,-13.59375 -16.90625,-13.59375 z"
       id="path3782"
       inkscape:connector-curvature="0" />
    <path
       style="fill:#ffffce;fill-opacity:1;stroke:#ffff00;stroke-width:5;stroke-miterlimit:4;stroke-dasharray:none"
       d="m 445.57028,155.97811 c -9.84037,0 -18.30648,5.95504 -21.9375,14.46875 -2.51766,-1.42864 -5.42969,-2.25 -8.53125,-2.25 -9.28257,0 -16.84973,7.3242 -17.28125,16.5 -1.46188,-0.71242 -3.10811,-1.125 -4.84375,-1.125 -6.10935,0 -11.0625,4.95315 -11.0625,11.0625 0,6.10935 4.95315,11.0625 11.0625,11.0625 1.65129,0 3.21768,-0.38257 4.625,-1.03125 -0.0399,0.38197 -0.0625,0.76372 -0.0625,1.15625 0,6.10935 4.95315,11.0625 11.0625,11.0625 0.36069,0 0.71066,-0.0288 1.0625,-0.0625 1.69951,7.7753 8.58987,13.59375 16.875,13.59375 5.90351,0 11.12581,-2.95679 14.25,-7.46875 2.52464,1.28004 5.38197,2 8.40625,2 7.76802,0 14.43047,-4.73841 17.21875,-11.5 2.16077,0.87766 4.52414,1.34375 7,1.34375 10.27858,0 18.59375,-8.31517 18.59375,-18.59375 0,-10.27858 -8.31517,-18.625 -18.59375,-18.625 -1.40909,0 -2.77426,0.17201 -4.09375,0.46875 -0.89796,-12.33482 -11.18608,-22.0625 -23.75,-22.0625 z"
       id="path3809"
       inkscape:connector-curvature="0" />
    <path
       style="fill:#ffffce;fill-opacity:1;stroke:#ffff00;stroke-width:5;stroke-miterlimit:4;stroke-dasharray:none"
       d="m 570.75778,48.00936 c -5.90351,0 -11.09456,2.988036 -14.21875,7.5 -2.52679,-1.282804 -5.37848,-2.03125 -8.40625,-2.03125 -7.76802,0 -14.43047,4.769658 -17.21875,11.53125 -2.16077,-0.877662 -4.52414,-1.375 -7,-1.375 -10.27858,0 -18.625,8.346416 -18.625,18.625 0,10.278584 8.34642,18.59375 18.625,18.59375 1.40958,0 2.77385,-0.17181 4.09375,-0.46875 0.88302,12.34945 11.1756,22.09375 23.75,22.09375 9.84098,0 18.30685,-5.98545 21.9375,-14.5 2.51831,1.42963 5.42853,2.25 8.53125,2.25 9.27696,0 16.84137,-7.30075 17.28125,-16.46875 1.46188,0.712417 3.10811,1.125 4.84375,1.125 6.10935,0 11.0625,-4.953147 11.0625,-11.0625 0,-6.109353 -4.95315,-11.0625 -11.0625,-11.0625 -1.65129,0 -3.21768,0.382568 -4.625,1.03125 0.0399,-0.381969 0.0625,-0.763724 0.0625,-1.15625 0,-6.109353 -4.95315,-11.0625 -11.0625,-11.0625 -0.36064,0 -0.7107,-0.0025 -1.0625,0.03125 -1.71029,-7.760888 -8.63134,-13.59375 -16.90625,-13.59375 z"
       id="path3825"
       inkscape:connector-curvature="0" />
    <path
       style="fill:#ffffce;fill-opacity:1;stroke:#ffff00;stroke-width:5;stroke-miterlimit:4;stroke-dasharray:none"
       d="m 371.03903,14.47811 c -9.87512,0 -17.875,7.999877 -17.875,17.875 0,0.376684 0.0395,0.754098 0.0625,1.125 -1.28234,-0.519788 -2.68744,-0.8125 -4.15625,-0.8125 -6.05648,0 -10.97781,4.869896 -11.0625,10.90625 -1.28077,-1.708084 -3.29451,-2.8125 -5.59375,-2.8125 -3.87779,0 -7.03125,3.122215 -7.03125,7 0,3.877785 3.15346,7.03125 7.03125,7.03125 0.22133,0 0.44016,-0.01122 0.65625,-0.03125 -0.0667,0.436431 -0.0937,0.888679 -0.0937,1.34375 0,4.854096 3.92715,8.78125 8.78125,8.78125 2.44297,0 4.65708,-0.9848 6.25,-2.59375 1.69307,8.114331 8.85178,14.21875 17.46875,14.21875 2.1478,0 4.21722,-0.399497 6.125,-1.09375 3.05913,5.465436 8.88514,9.1875 15.59375,9.1875 7.08771,0 13.23222,-4.145746 16.125,-10.125 2.24864,1.29093 4.84616,2.03125 7.625,2.03125 8.48039,0 15.34375,-6.863357 15.34375,-15.34375 0,-2.027143 -0.38008,-3.97832 -1.09375,-5.75 3.5635,-1.121361 6.15625,-4.472462 6.15625,-8.40625 0,-4.854096 -3.92715,-8.78125 -8.78125,-8.78125 -0.79667,0 -1.57868,0.113843 -2.3125,0.3125 -2.87587,-9.534958 -11.71475,-16.46875 -22.1875,-16.46875 -3.92624,0 -7.63404,0.964897 -10.875,2.6875 -2.86204,-6.061102 -9.00874,-10.28125 -16.15625,-10.28125 z"
       id="path3796-0"
       inkscape:connector-curvature="0" />
    <path
       style="fill:#ffffce;fill-opacity:1;stroke:#ffff00;stroke-width:5;stroke-miterlimit:4;stroke-dasharray:none"
       d="m 218.91403,130.19686 c -9.87512,0 -17.875,7.99988 -17.875,17.875 0,0.37652 0.008,0.75426 0.0312,1.125 -1.28118,-0.5187 -2.65781,-0.8125 -4.125,-0.8125 -6.05636,0 -10.97761,4.87006 -11.0625,10.90625 -1.28077,-1.70808 -3.32576,-2.8125 -5.625,-2.8125 -3.87779,0 -7,3.12221 -7,7 0,3.87779 3.12221,7.03125 7,7.03125 0.22133,0 0.44016,-0.0112 0.65625,-0.0312 -0.0664,0.43558 -0.0937,0.88962 -0.0937,1.34375 0,4.8541 3.92715,8.78125 8.78125,8.78125 2.44297,0 4.65708,-0.9848 6.25,-2.59375 1.69307,8.11433 8.88303,14.21875 17.5,14.21875 2.14285,0 4.18967,-0.40254 6.09375,-1.09375 3.05723,5.47224 8.91133,9.1875 15.625,9.1875 7.08771,0 13.20097,-4.14575 16.09375,-10.125 2.24991,1.29292 4.87511,2.03125 7.65625,2.03125 8.48039,0 15.34375,-6.86336 15.34375,-15.34375 0,-2.02596 -0.41212,-3.97916 -1.125,-5.75 3.57777,-1.1128 6.1875,-4.4623 6.1875,-8.40625 0,-4.8541 -3.9584,-8.78125 -8.8125,-8.78125 -0.7994,0 -1.54518,0.11253 -2.28125,0.3125 -2.87587,-9.53496 -11.746,-16.46875 -22.21875,-16.46875 -3.92624,0 -7.60279,0.9649 -10.84375,2.6875 -2.86204,-6.0611 -9.00874,-10.28125 -16.15625,-10.28125 z"
       id="path3888"
       inkscape:connector-curvature="0" />
    <path
       style="fill:#ffffce;fill-opacity:1;stroke:#ffff00;stroke-width:5;stroke-miterlimit:4;stroke-dasharray:none"
       d="m 685.13278,153.57186 c -7.09774,0 -13.23729,4.13203 -16.125,10.125 -2.2494,-1.29213 -4.84478,-2.0625 -7.625,-2.0625 -8.48039,0 -15.34375,6.89461 -15.34375,15.375 0,2.03947 0.40307,3.96955 1.125,5.75 -3.57777,1.1128 -6.1875,4.43105 -6.1875,8.375 0,4.8541 3.92715,8.8125 8.78125,8.8125 0.79667,0 1.57868,-0.11384 2.3125,-0.3125 2.87744,9.53241 11.71656,16.46875 22.1875,16.46875 3.92721,0 7.63347,-0.99535 10.875,-2.71875 2.85675,6.07485 8.99871,10.28125 16.15625,10.28125 9.87512,0 17.875,-7.99988 17.875,-17.875 0,-0.37255 -0.04,-0.72685 -0.0625,-1.09375 1.28234,0.51979 2.68744,0.78125 4.15625,0.78125 6.04761,0 10.9638,-4.85091 11.0625,-10.875 1.28125,1.70208 3.29925,2.8125 5.59375,2.8125 3.87779,0 7.03125,-3.15346 7.03125,-7.03125 0,-3.87779 -3.15346,-7.03125 -7.03125,-7.03125 -0.22144,0 -0.44004,0.0425 -0.65625,0.0625 0.0698,-0.44611 0.0937,-0.90931 0.0937,-1.375 0,-4.8541 -3.92715,-8.78125 -8.78125,-8.78125 -2.42705,0 -4.62823,1.00323 -6.21875,2.59375 -1.69054,-8.11763 -8.88069,-14.21875 -17.5,-14.21875 -2.1478,0 -4.21722,0.3995 -6.125,1.09375 -3.05913,-5.46544 -8.88514,-9.15625 -15.59375,-9.15625 z"
       id="path3908"
       inkscape:connector-curvature="0" />
    <g
       transform="matrix(0.51539223,0,0,0.51539223,-26.023603,-583.26142)"
       id="g3990"
       style="fill:#666666">
      <path
         sodipodi:type="arc"
         style="fill:#666666;fill-opacity:1;stroke:none"
         id="path3992"
         sodipodi:cx="163.64471"
         sodipodi:cy="112.80955"
         sodipodi:rx="55.558392"
         sodipodi:ry="44.95179"
         d="m 219.20311,112.80955 a 55.558392,44.95179 0 1 1 -111.11679,0 55.558392,44.95179 0 1 1 111.11679,0 z"
         transform="matrix(0.64995408,0,0,0.80331405,66.624525,577.12764)" />
      <path
         transform="matrix(0.64995408,0,0,0.80331405,113.59662,557.42967)"
         d="m 219.20311,112.80955 a 55.558392,44.95179 0 1 1 -111.11679,0 55.558392,44.95179 0 1 1 111.11679,0 z"
         sodipodi:ry="44.95179"
         sodipodi:rx="55.558392"
         sodipodi:cy="112.80955"
         sodipodi:cx="163.64471"
         id="path3994"
         style="fill:#666666;fill-opacity:1;stroke:none"
         sodipodi:type="arc" />
      <path
         sodipodi:type="arc"
         style="fill:#666666;fill-opacity:1;stroke:none"
         id="path3996"
         sodipodi:cx="163.64471"
         sodipodi:cy="112.80955"
         sodipodi:rx="55.558392"
         sodipodi:ry="44.95179"
         d="m 219.20311,112.80955 a 55.558392,44.95179 0 1 1 -111.11679,0 55.558392,44.95179 0 1 1 111.11679,0 z"
         transform="matrix(0.83177225,0,0,1.0280331,90.914103,583.597)" />
      <path
         transform="matrix(0.60449953,0,0,0.74713423,164.97665,550.63531)"
         d="m 219.20311,112.80955 a 55.558392,44.95179 0 1 1 -111.11679,0 55.558392,44.95179 0 1 1 111.11679,0 z"
         sodipodi:ry="44.95179"
         sodipodi:rx="55.558392"
         sodipodi:cy="112.80955"
         sodipodi:cx="163.64471"
         id="path3998"
         style="fill:#666666;fill-opacity:1;stroke:none"
         sodipodi:type="arc" />
      <path
         sodipodi:type="arc"
         style="fill:#666666;fill-opacity:1;stroke:none"
         id="path4000"
         sodipodi:cx="163.64471"
         sodipodi:cy="112.80955"
         sodipodi:rx="55.558392"
         sodipodi:ry="44.95179"
         d="m 219.20311,112.80955 a 55.558392,44.95179 0 1 1 -111.11679,0 55.558392,44.95179 0 1 1 111.11679,0 z"
         transform="matrix(0.60449953,0,0,0.74713423,187.20001,604.1734)" />
      <path
         transform="matrix(0.38631771,0,0,0.47747132,235.53122,595.198)"
         d="m 219.20311,112.80955 a 55.558392,44.95179 0 1 1 -111.11679,0 55.558392,44.95179 0 1 1 111.11679,0 z"
         sodipodi:ry="44.95179"
         sodipodi:rx="55.558392"
         sodipodi:cy="112.80955"
         sodipodi:cx="163.64471"
         id="path4002"
         style="fill:#666666;fill-opacity:1;stroke:none"
         sodipodi:type="arc" />
      <path
         sodipodi:type="arc"
         style="fill:#666666;fill-opacity:1;stroke:none"
         id="path4004"
         sodipodi:cx="163.64471"
         sodipodi:cy="112.80955"
         sodipodi:rx="55.558392"
         sodipodi:ry="44.95179"
         d="m 219.20311,112.80955 a 55.558392,44.95179 0 1 1 -111.11679,0 55.558392,44.95179 0 1 1 111.11679,0 z"
         transform="matrix(0.38631771,0,0,0.47747132,265.8358,616.91628)" />
    </g>
    <g
       id="g4006"
       transform="matrix(-0.51539223,0,0,-0.51539223,550.44434,226.18859)"
       style="fill:#666666">
      <path
         transform="matrix(0.64995408,0,0,0.80331405,66.624525,577.12764)"
         d="m 219.20311,112.80955 a 55.558392,44.95179 0 1 1 -111.11679,0 55.558392,44.95179 0 1 1 111.11679,0 z"
         sodipodi:ry="44.95179"
         sodipodi:rx="55.558392"
         sodipodi:cy="112.80955"
         sodipodi:cx="163.64471"
         id="path4008"
         style="fill:#666666;fill-opacity:1;stroke:none"
         sodipodi:type="arc" />
      <path
         sodipodi:type="arc"
         style="fill:#666666;fill-opacity:1;stroke:none"
         id="path4010"
         sodipodi:cx="163.64471"
         sodipodi:cy="112.80955"
         sodipodi:rx="55.558392"
         sodipodi:ry="44.95179"
         d="m 219.20311,112.80955 a 55.558392,44.95179 0 1 1 -111.11679,0 55.558392,44.95179 0 1 1 111.11679,0 z"
         transform="matrix(0.64995408,0,0,0.80331405,113.59662,557.42967)" />
      <path
         transform="matrix(0.83177225,0,0,1.0280331,90.914103,583.597)"
         d="m 219.20311,112.80955 a 55.558392,44.95179 0 1 1 -111.11679,0 55.558392,44.95179 0 1 1 111.11679,0 z"
         sodipodi:ry="44.95179"
         sodipodi:rx="55.558392"
         sodipodi:cy="112.80955"
         sodipodi:cx="163.64471"
         id="path4012"
         style="fill:#666666;fill-opacity:1;stroke:none"
         sodipodi:type="arc" />
      <path
         sodipodi:type="arc"
         style="fill:#666666;fill-opacity:1;stroke:none"
         id="path4014"
         sodipodi:cx="163.64471"
         sodipodi:cy="112.80955"
         sodipodi:rx="55.558392"
         sodipodi:ry="44.95179"
         d="m 219.20311,112.80955 a 55.558392,44.95179 0 1 1 -111.11679,0 55.558392,44.95179 0 1 1 111.11679,0 z"
         transform="matrix(0.60449953,0,0,0.74713423,164.97665,550.63531)" />
      <path
         transform="matrix(0.60449953,0,0,0.74713423,187.20001,604.1734)"
         d="m 219.20311,112.80955 a 55.558392,44.95179 0 1 1 -111.11679,0 55.558392,44.95179 0 1 1 111.11679,0 z"
         sodipodi:ry="44.95179"
         sodipodi:rx="55.558392"
         sodipodi:cy="112.80955"
         sodipodi:cx="163.64471"
         id="path4016"
         style="fill:#666666;fill-opacity:1;stroke:none"
         sodipodi:type="arc" />
      <path
         sodipodi:type="arc"
         style="fill:#666666;fill-opacity:1;stroke:none"
         id="path4018"
         sodipodi:cx="163.64471"
         sodipodi:cy="112.80955"
         sodipodi:rx="55.558392"
         sodipodi:ry="44.95179"
         d="m 219.20311,112.80955 a 55.558392,44.95179 0 1 1 -111.11679,0 55.558392,44.95179 0 1 1 111.11679,0 z"
         transform="matrix(0.38631771,0,0,0.47747132,235.53122,595.198)" />
      <path
         transform="matrix(0.38631771,0,0,0.47747132,265.8358,616.91628)"
         d="m 219.20311,112.80955 a 55.558392,44.95179 0 1 1 -111.11679,0 55.558392,44.95179 0 1 1 111.11679,0 z"
         sodipodi:ry="44.95179"
         sodipodi:rx="55.558392"
         sodipodi:cy="112.80955"
         sodipodi:cx="163.64471"
         id="path4020"
         style="fill:#666666;fill-opacity:1;stroke:none"
         sodipodi:type="arc" />
    </g>
    <g
       transform="matrix(0.51539223,0,0,0.51539223,422.63641,-576.05548)"
       id="g4022"
       style="fill:#666666">
      <path
         sodipodi:type="arc"
         style="fill:#666666;fill-opacity:1;stroke:none"
         id="path4024"
         sodipodi:cx="163.64471"
         sodipodi:cy="112.80955"
         sodipodi:rx="55.558392"
         sodipodi:ry="44.95179"
         d="m 219.20311,112.80955 a 55.558392,44.95179 0 1 1 -111.11679,0 55.558392,44.95179 0 1 1 111.11679,0 z"
         transform="matrix(0.64995408,0,0,0.80331405,66.624525,577.12764)" />
      <path
         transform="matrix(0.64995408,0,0,0.80331405,113.59662,557.42967)"
         d="m 219.20311,112.80955 a 55.558392,44.95179 0 1 1 -111.11679,0 55.558392,44.95179 0 1 1 111.11679,0 z"
         sodipodi:ry="44.95179"
         sodipodi:rx="55.558392"
         sodipodi:cy="112.80955"
         sodipodi:cx="163.64471"
         id="path4026"
         style="fill:#666666;fill-opacity:1;stroke:none"
         sodipodi:type="arc" />
      <path
         sodipodi:type="arc"
         style="fill:#666666;fill-opacity:1;stroke:none"
         id="path4028"
         sodipodi:cx="163.64471"
         sodipodi:cy="112.80955"
         sodipodi:rx="55.558392"
         sodipodi:ry="44.95179"
         d="m 219.20311,112.80955 a 55.558392,44.95179 0 1 1 -111.11679,0 55.558392,44.95179 0 1 1 111.11679,0 z"
         transform="matrix(0.83177225,0,0,1.0280331,90.914103,583.597)" />
      <path
         transform="matrix(0.60449953,0,0,0.74713423,164.97665,550.63531)"
         d="m 219.20311,112.80955 a 55.558392,44.95179 0 1 1 -111.11679,0 55.558392,44.95179 0 1 1 111.11679,0 z"
         sodipodi:ry="44.95179"
         sodipodi:rx="55.558392"
         sodipodi:cy="112.80955"
         sodipodi:cx="163.64471"
         id="path4030"
         style="fill:#666666;fill-opacity:1;stroke:none"
         sodipodi:type="arc" />
      <path
         sodipodi:type="arc"
         style="fill:#666666;fill-opacity:1;stroke:none"
         id="path4032"
         sodipodi:cx="163.64471"
         sodipodi:cy="112.80955"
         sodipodi:rx="55.558392"
         sodipodi:ry="44.95179"
         d="m 219.20311,112.80955 a 55.558392,44.95179 0 1 1 -111.11679,0 55.558392,44.95179 0 1 1 111.11679,0 z"
         transform="matrix(0.60449953,0,0,0.74713423,187.20001,604.1734)" />
      <path
         transform="matrix(0.38631771,0,0,0.47747132,235.53122,595.198)"
         d="m 219.20311,112.80955 a 55.558392,44.95179 0 1 1 -111.11679,0 55.558392,44.95179 0 1 1 111.11679,0 z"
         sodipodi:ry="44.95179"
         sodipodi:rx="55.558392"
         sodipodi:cy="112.80955"
         sodipodi:cx="163.64471"
         id="path4034"
         style="fill:#666666;fill-opacity:1;stroke:none"
         sodipodi:type="arc" />
      <path
         sodipodi:type="arc"
         style="fill:#666666;fill-opacity:1;stroke:none"
         id="path4036"
         sodipodi:cx="163.64471"
         sodipodi:cy="112.80955"
         sodipodi:rx="55.558392"
         sodipodi:ry="44.95179"
         d="m 219.20311,112.80955 a 55.558392,44.95179 0 1 1 -111.11679,0 55.558392,44.95179 0 1 1 111.11679,0 z"
         transform="matrix(0.38631771,0,0,0.47747132,265.8358,616.91628)" />
    </g>
    <g
       transform="translate(55.122552,-901.05044)"
       id="g4038"
       style="fill:#666666">
      <path
         transform="matrix(0.19910515,0,0,0.24608501,249.25005,602.86276)"
         d="m 219.20311,112.80955 a 55.558392,44.95179 0 1 1 -111.11679,0 55.558392,44.95179 0 1 1 111.11679,0 z"
         sodipodi:ry="44.95179"
         sodipodi:rx="55.558392"
         sodipodi:cy="112.80955"
         sodipodi:cx="163.64471"
         id="path4040"
         style="fill:#666666;fill-opacity:1;stroke:none"
         sodipodi:type="arc" />
      <path
         sodipodi:type="arc"
         style="fill:#666666;fill-opacity:1;stroke:none"
         id="path4042"
         sodipodi:cx="163.64471"
         sodipodi:cy="112.80955"
         sodipodi:rx="55.558392"
         sodipodi:ry="44.95179"
         d="m 219.20311,112.80955 a 55.558392,44.95179 0 1 1 -111.11679,0 55.558392,44.95179 0 1 1 111.11679,0 z"
         transform="matrix(0.32183242,0,0,0.3977704,245.58136,600.65095)" />
      <path
         transform="matrix(0.32183242,0,0,0.3977704,251.1372,574.38698)"
         d="m 219.20311,112.80955 a 55.558392,44.95179 0 1 1 -111.11679,0 55.558392,44.95179 0 1 1 111.11679,0 z"
         sodipodi:ry="44.95179"
         sodipodi:rx="55.558392"
         sodipodi:cy="112.80955"
         sodipodi:cx="163.64471"
         id="path4044"
         style="fill:#666666;fill-opacity:1;stroke:none"
         sodipodi:type="arc" />
      <path
         sodipodi:type="arc"
         style="fill:#666666;fill-opacity:1;stroke:none"
         id="path4046"
         sodipodi:cx="163.64471"
         sodipodi:cy="112.80955"
         sodipodi:rx="55.558392"
         sodipodi:ry="44.95179"
         d="m 219.20311,112.80955 a 55.558392,44.95179 0 1 1 -111.11679,0 55.558392,44.95179 0 1 1 111.11679,0 z"
         transform="matrix(0.32183242,0,0,0.3977704,267.29964,608.73217)" />
      <path
         transform="matrix(0.41728696,0,0,0.51574792,262.53815,573.95743)"
         d="m 219.20311,112.80955 a 55.558392,44.95179 0 1 1 -111.11679,0 55.558392,44.95179 0 1 1 111.11679,0 z"
         sodipodi:ry="44.95179"
         sodipodi:rx="55.558392"
         sodipodi:cy="112.80955"
         sodipodi:cx="163.64471"
         id="path4048"
         style="fill:#666666;fill-opacity:1;stroke:none"
         sodipodi:type="arc" />
      <path
         sodipodi:type="arc"
         style="fill:#666666;fill-opacity:1;stroke:none"
         id="path4050"
         sodipodi:cx="163.64471"
         sodipodi:cy="112.80955"
         sodipodi:rx="55.558392"
         sodipodi:ry="44.95179"
         d="m 219.20311,112.80955 a 55.558392,44.95179 0 1 1 -111.11679,0 55.558392,44.95179 0 1 1 111.11679,0 z"
         transform="matrix(0.27637787,0,0,0.34159062,298.47662,609.51394)" />
      <path
         transform="matrix(0.15819606,0,0,0.19552321,329.4332,611.84961)"
         d="m 219.20311,112.80955 a 55.558392,44.95179 0 1 1 -111.11679,0 55.558392,44.95179 0 1 1 111.11679,0 z"
         sodipodi:ry="44.95179"
         sodipodi:rx="55.558392"
         sodipodi:cy="112.80955"
         sodipodi:cx="163.64471"
         id="path4052"
         style="fill:#666666;fill-opacity:1;stroke:none"
         sodipodi:type="arc" />
      <path
         sodipodi:type="arc"
         style="fill:#666666;fill-opacity:1;stroke:none"
         id="path4054"
         sodipodi:cx="163.64471"
         sodipodi:cy="112.80955"
         sodipodi:rx="55.558392"
         sodipodi:ry="44.95179"
         d="m 219.20311,112.80955 a 55.558392,44.95179 0 1 1 -111.11679,0 55.558392,44.95179 0 1 1 111.11679,0 z"
         transform="matrix(0.15819606,0,0,0.19552321,248.621,620.94098)" />
      <path
         transform="matrix(0.12637788,0,0,0.15619737,244.48397,617.04355)"
         d="m 219.20311,112.80955 a 55.558392,44.95179 0 1 1 -111.11679,0 55.558392,44.95179 0 1 1 111.11679,0 z"
         sodipodi:ry="44.95179"
         sodipodi:rx="55.558392"
         sodipodi:cy="112.80955"
         sodipodi:cx="163.64471"
         id="path4056"
         style="fill:#666666;fill-opacity:1;stroke:none"
         sodipodi:type="arc" />
    </g>
    <g
       id="g4058"
       transform="translate(-97.020305,-785.33616)"
       style="fill:#666666">
      <path
         sodipodi:type="arc"
         style="fill:#666666;fill-opacity:1;stroke:none"
         id="path4060"
         sodipodi:cx="163.64471"
         sodipodi:cy="112.80955"
         sodipodi:rx="55.558392"
         sodipodi:ry="44.95179"
         d="m 219.20311,112.80955 a 55.558392,44.95179 0 1 1 -111.11679,0 55.558392,44.95179 0 1 1 111.11679,0 z"
         transform="matrix(0.19910515,0,0,0.24608501,249.25005,602.86276)" />
      <path
         transform="matrix(0.32183242,0,0,0.3977704,245.58136,600.65095)"
         d="m 219.20311,112.80955 a 55.558392,44.95179 0 1 1 -111.11679,0 55.558392,44.95179 0 1 1 111.11679,0 z"
         sodipodi:ry="44.95179"
         sodipodi:rx="55.558392"
         sodipodi:cy="112.80955"
         sodipodi:cx="163.64471"
         id="path4062"
         style="fill:#666666;fill-opacity:1;stroke:none"
         sodipodi:type="arc" />
      <path
         sodipodi:type="arc"
         style="fill:#666666;fill-opacity:1;stroke:none"
         id="path4064"
         sodipodi:cx="163.64471"
         sodipodi:cy="112.80955"
         sodipodi:rx="55.558392"
         sodipodi:ry="44.95179"
         d="m 219.20311,112.80955 a 55.558392,44.95179 0 1 1 -111.11679,0 55.558392,44.95179 0 1 1 111.11679,0 z"
         transform="matrix(0.32183242,0,0,0.3977704,251.1372,574.38698)" />
      <path
         transform="matrix(0.32183242,0,0,0.3977704,267.29964,608.73217)"
         d="m 219.20311,112.80955 a 55.558392,44.95179 0 1 1 -111.11679,0 55.558392,44.95179 0 1 1 111.11679,0 z"
         sodipodi:ry="44.95179"
         sodipodi:rx="55.558392"
         sodipodi:cy="112.80955"
         sodipodi:cx="163.64471"
         id="path4066"
         style="fill:#666666;fill-opacity:1;stroke:none"
         sodipodi:type="arc" />
      <path
         sodipodi:type="arc"
         style="fill:#666666;fill-opacity:1;stroke:none"
         id="path4068"
         sodipodi:cx="163.64471"
         sodipodi:cy="112.80955"
         sodipodi:rx="55.558392"
         sodipodi:ry="44.95179"
         d="m 219.20311,112.80955 a 55.558392,44.95179 0 1 1 -111.11679,0 55.558392,44.95179 0 1 1 111.11679,0 z"
         transform="matrix(0.41728696,0,0,0.51574792,262.53815,573.95743)" />
      <path
         transform="matrix(0.27637787,0,0,0.34159062,298.47662,609.51394)"
         d="m 219.20311,112.80955 a 55.558392,44.95179 0 1 1 -111.11679,0 55.558392,44.95179 0 1 1 111.11679,0 z"
         sodipodi:ry="44.95179"
         sodipodi:rx="55.558392"
         sodipodi:cy="112.80955"
         sodipodi:cx="163.64471"
         id="path4070"
         style="fill:#666666;fill-opacity:1;stroke:none"
         sodipodi:type="arc" />
      <path
         sodipodi:type="arc"
         style="fill:#666666;fill-opacity:1;stroke:none"
         id="path4072"
         sodipodi:cx="163.64471"
         sodipodi:cy="112.80955"
         sodipodi:rx="55.558392"
         sodipodi:ry="44.95179"
         d="m 219.20311,112.80955 a 55.558392,44.95179 0 1 1 -111.11679,0 55.558392,44.95179 0 1 1 111.11679,0 z"
         transform="matrix(0.15819606,0,0,0.19552321,329.4332,611.84961)" />
      <path
         transform="matrix(0.15819606,0,0,0.19552321,248.621,620.94098)"
         d="m 219.20311,112.80955 a 55.558392,44.95179 0 1 1 -111.11679,0 55.558392,44.95179 0 1 1 111.11679,0 z"
         sodipodi:ry="44.95179"
         sodipodi:rx="55.558392"
         sodipodi:cy="112.80955"
         sodipodi:cx="163.64471"
         id="path4074"
         style="fill:#666666;fill-opacity:1;stroke:none"
         sodipodi:type="arc" />
      <path
         sodipodi:type="arc"
         style="fill:#666666;fill-opacity:1;stroke:none"
         id="path4076"
         sodipodi:cx="163.64471"
         sodipodi:cy="112.80955"
         sodipodi:rx="55.558392"
         sodipodi:ry="44.95179"
         d="m 219.20311,112.80955 a 55.558392,44.95179 0 1 1 -111.11679,0 55.558392,44.95179 0 1 1 111.11679,0 z"
         transform="matrix(0.12637788,0,0,0.15619737,244.48397,617.04355)" />
    </g>
    <g
       id="g4078"
       transform="matrix(-1,0,0,-1,992.96464,510.89592)"
       style="fill:#666666">
      <path
         sodipodi:type="arc"
         style="fill:#666666;fill-opacity:1;stroke:none"
         id="path4080"
         sodipodi:cx="163.64471"
         sodipodi:cy="112.80955"
         sodipodi:rx="55.558392"
         sodipodi:ry="44.95179"
         d="m 219.20311,112.80955 a 55.558392,44.95179 0 1 1 -111.11679,0 55.558392,44.95179 0 1 1 111.11679,0 z"
         transform="matrix(0.19910515,0,0,0.24608501,249.25005,602.86276)" />
      <path
         transform="matrix(0.32183242,0,0,0.3977704,245.58136,600.65095)"
         d="m 219.20311,112.80955 a 55.558392,44.95179 0 1 1 -111.11679,0 55.558392,44.95179 0 1 1 111.11679,0 z"
         sodipodi:ry="44.95179"
         sodipodi:rx="55.558392"
         sodipodi:cy="112.80955"
         sodipodi:cx="163.64471"
         id="path4082"
         style="fill:#666666;fill-opacity:1;stroke:none"
         sodipodi:type="arc" />
      <path
         sodipodi:type="arc"
         style="fill:#666666;fill-opacity:1;stroke:none"
         id="path4084"
         sodipodi:cx="163.64471"
         sodipodi:cy="112.80955"
         sodipodi:rx="55.558392"
         sodipodi:ry="44.95179"
         d="m 219.20311,112.80955 a 55.558392,44.95179 0 1 1 -111.11679,0 55.558392,44.95179 0 1 1 111.11679,0 z"
         transform="matrix(0.32183242,0,0,0.3977704,251.1372,574.38698)" />
      <path
         transform="matrix(0.32183242,0,0,0.3977704,267.29964,608.73217)"
         d="m 219.20311,112.80955 a 55.558392,44.95179 0 1 1 -111.11679,0 55.558392,44.95179 0 1 1 111.11679,0 z"
         sodipodi:ry="44.95179"
         sodipodi:rx="55.558392"
         sodipodi:cy="112.80955"
         sodipodi:cx="163.64471"
         id="path4086"
         style="fill:#666666;fill-opacity:1;stroke:none"
         sodipodi:type="arc" />
      <path
         sodipodi:type="arc"
         style="fill:#666666;fill-opacity:1;stroke:none"
         id="path4088"
         sodipodi:cx="163.64471"
         sodipodi:cy="112.80955"
         sodipodi:rx="55.558392"
         sodipodi:ry="44.95179"
         d="m 219.20311,112.80955 a 55.558392,44.95179 0 1 1 -111.11679,0 55.558392,44.95179 0 1 1 111.11679,0 z"
         transform="matrix(0.41728696,0,0,0.51574792,262.53815,573.95743)" />
      <path
         transform="matrix(0.27637787,0,0,0.34159062,298.47662,609.51394)"
         d="m 219.20311,112.80955 a 55.558392,44.95179 0 1 1 -111.11679,0 55.558392,44.95179 0 1 1 111.11679,0 z"
         sodipodi:ry="44.95179"
         sodipodi:rx="55.558392"
         sodipodi:cy="112.80955"
         sodipodi:cx="163.64471"
         id="path4090"
         style="fill:#666666;fill-opacity:1;stroke:none"
         sodipodi:type="arc" />
      <path
         sodipodi:type="arc"
         style="fill:#666666;fill-opacity:1;stroke:none"
         id="path4092"
         sodipodi:cx="163.64471"
         sodipodi:cy="112.80955"
         sodipodi:rx="55.558392"
         sodipodi:ry="44.95179"
         d="m 219.20311,112.80955 a 55.558392,44.95179 0 1 1 -111.11679,0 55.558392,44.95179 0 1 1 111.11679,0 z"
         transform="matrix(0.15819606,0,0,0.19552321,329.4332,611.84961)" />
      <path
         transform="matrix(0.15819606,0,0,0.19552321,248.621,620.94098)"
         d="m 219.20311,112.80955 a 55.558392,44.95179 0 1 1 -111.11679,0 55.558392,44.95179 0 1 1 111.11679,0 z"
         sodipodi:ry="44.95179"
         sodipodi:rx="55.558392"
         sodipodi:cy="112.80955"
         sodipodi:cx="163.64471"
         id="path4094"
         style="fill:#666666;fill-opacity:1;stroke:none"
         sodipodi:type="arc" />
      <path
         sodipodi:type="arc"
         style="fill:#666666;fill-opacity:1;stroke:none"
         id="path4096"
         sodipodi:cx="163.64471"
         sodipodi:cy="112.80955"
         sodipodi:rx="55.558392"
         sodipodi:ry="44.95179"
         d="m 219.20311,112.80955 a 55.558392,44.95179 0 1 1 -111.11679,0 55.558392,44.95179 0 1 1 111.11679,0 z"
         transform="matrix(0.12637788,0,0,0.15619737,244.48397,617.04355)" />
    </g>
  </g>
  <g
     inkscape:groupmode="layer"
     id="layer3"
     inkscape:label="elements"
     style="display:inline">
    <g
       id="g4393"
       inkscape:export-filename="/home/acoppes/workspace/prototypes/prototypes-desktop/src/main/resources/parallax/character.png"
       inkscape:export-xdpi="90"
       inkscape:export-ydpi="90">
      <path
         style="fill:#0000ff;fill-opacity:1;stroke:none"
         d="m 134.35028,335.54819 58.08377,-0.77926 -35.86041,-17.40349 -73.236054,0.51951 41.921324,9.09137 z"
         id="path4373"
         inkscape:connector-curvature="0" />
      <path
         sodipodi:nodetypes="cccccc"
         inkscape:connector-curvature="0"
         id="path4369"
         d="m 132.83506,355.75124 0.50508,-35.86042 41.41625,0.50508 43.43656,19.25474 -21.71828,16.1006 z"
         style="fill:#000080;fill-opacity:1;stroke:none" />
      <path
         inkscape:connector-curvature="0"
         id="path4371"
         d="m 135.36043,342.61925 58.08377,0.87667 -35.86041,19.57892 -73.236051,-0.58445 41.921321,-10.22779 z"
         style="fill:#0000ff;fill-opacity:1;stroke:none" />
      <path
         inkscape:connector-curvature="0"
         id="path4375"
         d="m 175.514,324.0577 36.23923,15.78363 -35.60788,-0.25254 z"
         style="fill:#000000;fill-opacity:1;stroke:none" />
    </g>
  </g>
</svg>
