<?xml version="1.0" encoding="UTF-8" standalone="no"?>
<!-- Created with Inkscape (http://www.inkscape.org/) -->

<svg
 xmlns:dc="http://purl.org/dc/elements/1.1/"
 xmlns:cc="http://creativecommons.org/ns#"
 xmlns:rdf="http://www.w3.org/1999/02/22-rdf-syntax-ns#"
 xmlns:svg="http://www.w3.org/2000/svg"
 xmlns="http://www.w3.org/2000/svg"
 xmlns:xlink="http://www.w3.org/1999/xlink"
 xmlns:sodipodi="http://sodipodi.sourceforge.net/DTD/sodipodi-0.dtd"
 xmlns:inkscape="http://www.inkscape.org/namespaces/inkscape"
 inkscape:export-ydpi="180"
 inkscape:export-xdpi="180"
 inkscape:export-filename="/home/acoppes/workspace/angryships/angryships-desktop/src/main/resources/data/gui/button-cross.png"
 sodipodi:docname="button.svg"
 inkscape:version="0.48.1 r9760"
 version="1.1"
 id="svg3976"
 height="64px"
 width="64px">
<defs
 id="defs3978">
<linearGradient
 inkscape:collect="always"
 id="linearGradient3975">
<stop
 style="stop-color:#ffffff;stop-opacity:1;"
 offset="0"
 id="stop3977" />
<stop
 style="stop-color:#ffffff;stop-opacity:0;"
 offset="1"
 id="stop3979" />
</linearGradient>
<linearGradient
 inkscape:collect="always"
 xlink:href="#linearGradient3909"
 id="linearGradient3952"
 x1="145"
 y1="757.362"
 x2="145"
 y2="837.362"
 gradientUnits="userSpaceOnUse"
 gradientTransform="matrix(1.88889,0,0,1.88889,-228.889,-702.47)" />
<linearGradient
 id="linearGradient3909">
<stop
 id="stop3911"
 offset="0"
 style="stop-color:#ff9307;stop-opacity:1;" />
<stop
 style="stop-color:#e7e103;stop-opacity:1;"
 offset="0.5"
 id="stop3913" />
<stop
 id="stop3915"
 offset="1"
 style="stop-color:#e36900;stop-opacity:1;" />
</linearGradient>
<linearGradient
 inkscape:collect="always"
 xlink:href="#linearGradient3764"
 id="linearGradient3942"
 x1="256"
 y1="757.362"
 x2="256"
 y2="832.362"
 gradientUnits="userSpaceOnUse"
 gradientTransform="matrix(1.88889,0,0,1.88889,-228.889,-702.47)" />
<linearGradient
 id="linearGradient3764">
<stop
 id="stop3944"
 offset="0"
 style="stop-color:#030036;stop-opacity:1;" />
<stop
 style="stop-color:#000000;stop-opacity:1;"
 offset="1"
 id="stop3768" />
</linearGradient>
<linearGradient
 inkscape:collect="always"
 xlink:href="#linearGradient3867"
 id="linearGradient3899"
 x1="342.5"
 y1="254.488"
 x2="372.5"
 y2="254.518"
 gradientUnits="userSpaceOnUse"
 gradientTransform="matrix(0.001938,1.88889,-1.88889,0.001938,921.701,127.887)" />
<linearGradient
 id="linearGradient3867">
<stop
 style="stop-color:#f00000;stop-opacity:1;"
 offset="0"
 id="stop3869" />
<stop
 id="stop3871"
 offset="0.5"
 style="stop-color:#e7b203;stop-opacity:1;" />
<stop
 style="stop-color:#e30000;stop-opacity:1;"
 offset="1"
 id="stop3873" />
</linearGradient>
<linearGradient
 inkscape:collect="always"
 xlink:href="#linearGradient3909"
 id="linearGradient3907"
 x1="365"
 y1="777.362"
 x2="365"
 y2="817.362"
 gradientUnits="userSpaceOnUse"
 gradientTransform="matrix(1.88889,0,0,1.88889,-228.889,-702.47)" />
<linearGradient
 id="linearGradient3045">
<stop
 id="stop3047"
 offset="0"
 style="stop-color:#ff9307;stop-opacity:1;" />
<stop
 style="stop-color:#e7e103;stop-opacity:1;"
 offset="0.5"
 id="stop3049" />
<stop
 id="stop3051"
 offset="1"
 style="stop-color:#e36900;stop-opacity:1;" />
</linearGradient>
<linearGradient
 id="linearGradient3909-6">
<stop
 id="stop3911-9"
 offset="0"
 style="stop-color:#ff9307;stop-opacity:1;" />
<stop
 style="stop-color:#e7e103;stop-opacity:1;"
 offset="0.5"
 id="stop3913-8" />
<stop
 id="stop3915-1"
 offset="1"
 style="stop-color:#e36900;stop-opacity:1;" />
</linearGradient>
<linearGradient
 id="linearGradient3764-3">
<stop
 id="stop3944-3"
 offset="0"
 style="stop-color:#030036;stop-opacity:1;" />
<stop
 style="stop-color:#000000;stop-opacity:1;"
 offset="1"
 id="stop3768-7" />
</linearGradient>
<linearGradient
 id="linearGradient3867-8">
<stop
 style="stop-color:#f00000;stop-opacity:1;"
 offset="0"
 id="stop3869-6" />
<stop
 id="stop3871-7"
 offset="0.5"
 style="stop-color:#e7b203;stop-opacity:1;" />
<stop
 style="stop-color:#e30000;stop-opacity:1;"
 offset="1"
 id="stop3873-0" />
</linearGradient>
<linearGradient
 id="linearGradient3068">
<stop
 id="stop3070"
 offset="0"
 style="stop-color:#ff9307;stop-opacity:1;" />
<stop
 style="stop-color:#e7e103;stop-opacity:1;"
 offset="0.5"
 id="stop3072" />
<stop
 id="stop3074"
 offset="1"
 style="stop-color:#e36900;stop-opacity:1;" />
</linearGradient>
<linearGradient
 inkscape:collect="always"
 xlink:href="#linearGradient3975"
 id="linearGradient3981"
 x1="32.6202"
 y1="7.95702"
 x2="32.9503"
 y2="36.9236"
 gradientUnits="userSpaceOnUse" />
<filter
 inkscape:collect="always"
 id="filter4027">
<feGaussianBlur
 inkscape:collect="always"
 stdDeviation="0.64"
 id="feGaussianBlur4029" />
</filter>
<filter
 color-interpolation-filters="sRGB"
 inkscape:collect="always"
 id="filter4027-0">
<feGaussianBlur
 inkscape:collect="always"
 stdDeviation="0.64"
 id="feGaussianBlur4029-9" />
</filter>
</defs>
<sodipodi:namedview
 id="base"
 pagecolor="#ffffff"
 bordercolor="#666666"
 borderopacity="1.0"
 inkscape:pageopacity="0.0"
 inkscape:pageshadow="2"
 inkscape:zoom="5.40626"
 inkscape:cx="23.4229"
 inkscape:cy="26.3995"
 inkscape:current-layer="layer8"
 showgrid="false"
 inkscape:document-units="px"
 inkscape:grid-bbox="true"
 inkscape:window-width="1440"
 inkscape:window-height="849"
 inkscape:window-x="0"
 inkscape:window-y="24"
 inkscape:window-maximized="1"
 inkscape:snap-global="false"
 showguides="true"
 inkscape:guide-bbox="true">
<inkscape:grid
 type="xygrid"
 id="grid3986" />
<sodipodi:guide
 orientation="1,0"
 position="31.9999,58.4508"
 id="guide4961" />
<sodipodi:guide
 orientation="0,1"
 position="36.2543,13.3179"
 id="guide4963" />
<sodipodi:guide
 orientation="0,1"
 position="76.7629,26.2658"
 id="guide4965" />
<sodipodi:guide
 orientation="0,1"
 position="76.5779,51.7918"
 id="guide4967" />
<sodipodi:guide
 orientation="0,1"
 position="77.8727,31.2601"
 id="guide4969" />
</sodipodi:namedview>
<metadata
 id="metadata3981">
<rdf:RDF>
<cc:Work
 rdf:about="">
<dc:format>image/svg+xml</dc:format>
<dc:type
 rdf:resource="http://purl.org/dc/dcmitype/StillImage" />
<dc:title></dc:title>
</cc:Work>
</rdf:RDF>
</metadata>
<g
 inkscape:groupmode="layer"
 id="layer5"
 inkscape:label="button2"
 style="display:none">
<g
 style="display:inline"
 id="g3946"
 transform="matrix(0.995935,0,0,1.00966,-297.914,-345.358)">
<path
 transform="matrix(1.01844,0,0,1.01004,-110.454,155.991)"
 style="fill:#000000;fill-opacity:0.446237;fill-rule:nonzero;stroke:none;display:inline;filter:url(#filter4027-0)"
 d="M 451.63,191.568 C 457.841,197.064 461.786,205.09 461.786,214.036 461.786,230.605 448.355,244.036 431.786,244.036 425.573,244.036 419.793,242.146 415.005,238.911 420.288,243.557 427.198,246.38 434.786,246.38 451.355,246.38 464.786,232.949 464.786,216.38 464.786,206.056 459.569,196.965 451.63,191.568 z"
 id="path3876"
 inkscape:connector-curvature="0" />
<path
 sodipodi:type="arc"
 style="fill:#0094f1;fill-opacity:1;fill-rule:nonzero;stroke:none;display:inline"
 id="path3878"
 sodipodi:cx="32"
 sodipodi:cy="32"
 sodipodi:rx="32"
 sodipodi:ry="32"
 d="M 64,32 A 32,32 0 1 1 0,32 32,32 0 1 1 64,32 z"
 transform="matrix(0.954787,0,0,0.946912,300.599,343.197)" />
<path
 sodipodi:type="arc"
 style="fill:none;stroke:#6ec7ff;stroke-width:2.583536;stroke-miterlimit:4;stroke-opacity:1;stroke-dasharray:none;display:inline"
 id="path3880"
 sodipodi:cx="32"
 sodipodi:cy="32"
 sodipodi:rx="32"
 sodipodi:ry="32"
 d="M 64,32 A 32,32 0 1 1 0,32 32,32 0 1 1 64,32 z"
 transform="matrix(0.928344,0,0,0.920687,301.4,344.289)" />
<path
 sodipodi:nodetypes="cscc"
 inkscape:connector-curvature="0"
 id="path3922"
 d="M 358.779,370.151 C 356.97,357.446 345.543,346.271 330.808,346.271 316.074,346.271 306.196,357.315 303.225,370.151 320.597,361.341 338.666,357.895 358.779,370.151 z"
 style="fill:#ffffff;fill-opacity:0.446237;fill-rule:nonzero;stroke:none" />
<path
 transform="matrix(0.880345,0,0,0.873084,302.904,345.832)"
 d="M 64,32 A 32,32 0 1 1 0,32 32,32 0 1 1 64,32 z"
 sodipodi:ry="32"
 sodipodi:rx="32"
 sodipodi:cy="32"
 sodipodi:cx="32"
 id="path3944"
 style="fill:none;stroke:#0072b8;stroke-width:0.636014;stroke-miterlimit:4;stroke-opacity:1;stroke-dasharray:none;display:inline"
 sodipodi:type="arc" />
</g>
</g>
<g
 inkscape:groupmode="layer"
 id="layer8"
 inkscape:label="button_transparent">
<g
 transform="matrix(0.995935,0,0,1.00966,-297.914,-345.358)"
 id="g5224"
 style="display:inline">
<path
 inkscape:connector-curvature="0"
 id="path5226"
 d="M 451.63,191.568 C 457.841,197.064 461.786,205.09 461.786,214.036 461.786,230.605 448.355,244.036 431.786,244.036 425.573,244.036 419.793,242.146 415.005,238.911 420.288,243.557 427.198,246.38 434.786,246.38 451.355,246.38 464.786,232.949 464.786,216.38 464.786,206.056 459.569,196.965 451.63,191.568 z"
 style="fill:#000000;fill-opacity:0.446237;fill-rule:nonzero;stroke:none;display:inline;filter:url(#filter4027-0)"
 transform="matrix(1.01844,0,0,1.01004,-110.454,155.991)" />
<path
 transform="matrix(0.954787,0,0,0.946912,300.599,343.197)"
 d="M 64,32 C 64,49.6731 49.6731,64 32,64 14.3269,64 0,49.6731 0,32 0,14.3269 14.3269,0 32,0 49.6731,0 64,14.3269 64,32 z"
 sodipodi:ry="32"
 sodipodi:rx="32"
 sodipodi:cy="32"
 sodipodi:cx="32"
 id="path5228"
 style="fill:#0094f1;fill-opacity:0.311828;fill-rule:nonzero;stroke:none;display:inline"
 sodipodi:type="arc" />
<path
 transform="matrix(0.928344,0,0,0.920687,301.4,344.289)"
 d="M 64,32 C 64,49.6731 49.6731,64 32,64 14.3269,64 0,49.6731 0,32 0,14.3269 14.3269,0 32,0 49.6731,0 64,14.3269 64,32 z"
 sodipodi:ry="32"
 sodipodi:rx="32"
 sodipodi:cy="32"
 sodipodi:cx="32"
 id="path5230"
 style="fill:none;stroke:#6ec7ff;stroke-width:2.583536;stroke-miterlimit:4;stroke-opacity:1;stroke-dasharray:none;display:inline"
 sodipodi:type="arc" />
<path
 style="fill:#ffffff;fill-opacity:0.446237;fill-rule:nonzero;stroke:none"
 d="M 358.779,370.151 C 356.97,357.446 345.543,346.271 330.808,346.271 316.074,346.271 306.196,357.315 303.225,370.151 320.597,361.341 338.666,357.895 358.779,370.151 z"
 id="path5232"
 inkscape:connector-curvature="0"
 sodipodi:nodetypes="cscc" />
<path
 sodipodi:type="arc"
 style="fill:none;stroke:#0072b8;stroke-width:0.636014;stroke-miterlimit:4;stroke-opacity:1;stroke-dasharray:none;display:inline"
 id="path5234"
 sodipodi:cx="32"
 sodipodi:cy="32"
 sodipodi:rx="32"
 sodipodi:ry="32"
 d="M 64,32 C 64,49.6731 49.6731,64 32,64 14.3269,64 0,49.6731 0,32 0,14.3269 14.3269,0 32,0 49.6731,0 64,14.3269 64,32 z"
 transform="matrix(0.880345,0,0,0.873084,302.904,345.832)" />
</g>
</g>
<g
 inkscape:groupmode="layer"
 id="layer4"
 inkscape:label="button"
 style="display:none">
<path
 style="fill:#000000;fill-opacity:0.446237;fill-rule:nonzero;stroke:none;display:inline;filter:url(#filter4027)"
 d="M 50.2817,8.22284 C 56.4927,13.7192 60.4377,21.7458 60.4377,30.6915 60.4377,47.2601 47.0067,60.6916 30.4379,60.6916 24.2247,60.6916 18.4447,58.8013 13.6567,55.5666 18.9399,60.2123 25.8497,63.0353 33.4379,63.0353 50.0067,63.0353 63.4377,49.6039 63.4377,33.0353 63.4377,22.7116 58.2207,13.6203 50.2817,8.22284 z"
 id="path4233"
 inkscape:connector-curvature="0" />
<path
 sodipodi:type="arc"
 style="fill:#6597ff;fill-opacity:0.537634;fill-rule:nonzero;stroke:none;display:inline"
 id="path3845"
 sodipodi:cx="32"
 sodipodi:cy="32"
 sodipodi:rx="32"
 sodipodi:ry="32"
 d="M 64,32 A 32,32 0 1 1 0,32 32,32 0 1 1 64,32 z"
 transform="matrix(0.9375,0,0,0.9375,2.26164,2.00008)" />
<path
 sodipodi:type="arc"
 style="fill:none;stroke:#0600c3;stroke-width:4.266667;stroke-miterlimit:4;stroke-opacity:1;stroke-dasharray:none;display:inline"
 id="path4237"
 sodipodi:cx="32"
 sodipodi:cy="32"
 sodipodi:rx="32"
 sodipodi:ry="32"
 d="M 64,32 A 32,32 0 1 1 0,32 32,32 0 1 1 64,32 z"
 transform="matrix(0.878906,0,0,0.878906,4,3.87501)" />
<path
 sodipodi:type="arc"
 style="fill:url(#linearGradient3981);fill-opacity:1;fill-rule:nonzero;stroke:none;display:inline"
 id="path4239"
 sodipodi:cx="32.764"
 sodipodi:cy="30.4513"
 sodipodi:rx="17.0687"
 sodipodi:ry="15.7607"
 d="M 49.8327,30.4513 A 17.0687,15.7607 0 1 1 15.6953,30.4513 17.0687,15.7607 0 1 1 49.8327,30.4513 z"
 transform="matrix(1.16598,0,0,0.958511,-6.13647,-7.43237)" />
</g>
<g
 id="layer1"
 inkscape:label="fire"
 inkscape:groupmode="layer"
 style="display:inline">
<g
 id="g3960"
 transform="matrix(0.079726,0,0,0.08101,12.6645,-32.5465)">
<path
 sodipodi:nodetypes="ccccccc"
 inkscape:connector-curvature="0"
 id="path3875"
 d="M 26.111,709.213 45,709.213 63.889,726.213 63.889,867.88 45,888.658 26.111,888.658 C 7.2289,825.511 11.2104,766.398 26.111,709.213 z"
 style="fill:url(#linearGradient3952);fill-opacity:1;fill-rule:nonzero;stroke:none" />
<path
 sodipodi:nodetypes="ccccccc"
 inkscape:connector-curvature="0"
 id="path3877"
 d="M 63.889,726.213 C 143.403,715.959 222.359,701.618 300,699.769 375.555,699.769 394.444,718.658 432.222,737.547 L 432.222,860.325 C 394.444,879.213 375.555,888.658 300,888.658 233.889,888.658 156.56,876.229 63.889,867.88 z"
 style="fill:url(#linearGradient3942);fill-opacity:1;fill-rule:nonzero;stroke:none" />
<path
 sodipodi:nodetypes="ccccc"
 inkscape:connector-curvature="0"
 id="path3883"
 d="M 451.111,756.436 451.111,850.88 432.222,860.325 C 422.269,828.246 405.781,801.976 432.222,737.547 z"
 style="fill:url(#linearGradient3899);fill-opacity:1;fill-rule:nonzero;stroke:none" />
<path
 sodipodi:nodetypes="cccc"
 inkscape:connector-curvature="0"
 id="path3881"
 d="M 451.111,756.436 C 470,775.325 470,784.769 470,801.769 470,822.547 470,831.991 451.111,850.88 438.83,819.399 436.652,787.917 451.111,756.436 z"
 style="fill:url(#linearGradient3907);fill-opacity:1;fill-rule:nonzero;stroke:none" />
<path
 sodipodi:nodetypes="cccccccccccc"
 inkscape:connector-curvature="0"
 id="path3956"
 d="M 26.111,709.213 45,709.213 63.889,728.102 C 142.593,716.59 221.296,703.651 300,699.769 336.862,701.182 369.815,696.539 432.222,737.547 448.805,755.423 468.632,769.987 470,801.769 469.981,839.311 449.579,848.598 432.222,860.325 405.613,873.194 391.432,888.499 300,888.658 232.404,884.478 159.2,879.229 63.889,869.769 L 45,888.658 26.111,888.658 C 8.12519,818.052 14.4982,762.06 26.111,709.213 z"
 style="fill:none;stroke:#000000;stroke-width:5.666667;stroke-miterlimit:4;stroke-opacity:1;stroke-dasharray:none" />
<path
 sodipodi:nodetypes="cccccccc"
 inkscape:connector-curvature="0"
 id="path3958"
 d="M 186.667,724.955 C 225.13,718.879 252.617,711.641 300,712.362 352.823,713.095 375.971,718.029 385,724.955 391.033,730.375 394.444,731.251 394.444,743.842 394.444,750.14 388.778,755.176 375.555,756.436 300.823,759.044 243.333,757.694 186.667,750.14 177.222,748.88 171.555,743.842 171.555,737.547 171.555,731.251 179.897,726.108 186.667,724.955 z"
 style="fill:#dadada;fill-opacity:0.870968;stroke:none" />
</g>
</g>
<g
 inkscape:groupmode="layer"
 id="layer2"
 inkscape:label="left"
 style="display:none">
<path
 style="fill:#0500c4;fill-opacity:1;fill-rule:nonzero;stroke:none"
 d="M 26.0953,17.7846 26.1607,26.4171 51.0116,26.4171 51.0443,39.1925 26.1607,39.3069 26.2261,47.6058 8.8305,33.5454 z"
 id="path3173"
 inkscape:connector-curvature="0"
 sodipodi:nodetypes="cccccccc" />
</g>
<g
 inkscape:groupmode="layer"
 id="layer3"
 inkscape:label="right"
 style="display:none">
<path
 sodipodi:nodetypes="cccccccc"
 inkscape:connector-curvature="0"
 id="path4195"
 d="M 37.109,17.4147 37.0436,26.0472 12.1927,26.0472 12.16,38.8226 37.0436,38.937 36.9782,47.2359 54.3738,33.1755 z"
 style="fill:#0500c4;fill-opacity:1;fill-rule:nonzero;stroke:none;display:inline" />
</g>
<g
 inkscape:groupmode="layer"
 id="layer6"
 inkscape:label="tick"
 style="display:none">
<g
 id="g5058">
<path
 style="fill:#000000;fill-opacity:0.22043;fill-rule:nonzero;stroke:none;display:inline"
 d="M 33.0177,52.336 C 31.5547,49.3595 20.3114,41.1226 15.7806,40.4425 L 25.4089,35.4942 C 27.9414,38.6057 30.2359,41.0962 32.8958,43.7088 40.1331,26.4312 44.7527,19.9339 47.6693,16.6552 49.0954,21.2115 51.1522,24.8936 53.3576,28.5489 45.4177,32.3019 39.4207,43.0498 33.0177,52.336 z"
 id="path4973"
 inkscape:connector-curvature="0"
 sodipodi:nodetypes="ccccccc" />
<path
 sodipodi:nodetypes="ccccccc"
 inkscape:connector-curvature="0"
 id="path4971"
 d="M 32.1849,50.4971 C 30.6149,47.303 18.5498,38.464 13.6878,37.7342 L 24.0199,32.4242 C 26.7375,35.7632 29.1997,38.4357 32.0541,41.2393 39.8204,22.6988 44.7777,15.7266 47.9074,12.2082 49.4378,17.0976 51.6449,21.0488 54.0115,24.9712 45.4912,28.9985 39.0559,40.5322 32.1849,50.4971 z"
 style="fill:#ffffff;fill-opacity:1;fill-rule:nonzero;stroke:#0072b8;stroke-width:0.6;stroke-miterlimit:4;stroke-opacity:1;stroke-dasharray:none;display:inline" />
</g>
</g>
<g
 inkscape:groupmode="layer"
 id="layer7"
 inkscape:label="cross"
 style="display:none">
<g
 id="g5136"
 transform="matrix(0.850174,0,0,0.850174,4.67189,5.89436)">
<path
 style="fill:#000000;fill-opacity:0.22043;fill-rule:nonzero;stroke:none"
 d="M 22.7138,13.3362 14.4392,20.434 29.0745,33.5082 13.6679,45.0203 22.7138,53.6801 34.1689,39.7217 44.5783,54.0286 53.2015,46.4951 39.2634,33.5082 53.0757,19.8831 42.851,11.5491 34.1689,27.2947 z"
 id="path5070"
 inkscape:connector-curvature="0"
 sodipodi:nodetypes="ccccccccccccc" />
<path
 sodipodi:nodetypes="ccccccccccccc"
 inkscape:connector-curvature="0"
 id="rect5065"
 d="M 20.0938,10.6736 11.3129,18.2058 26.8438,32.0799 10.4944,44.2966 20.0938,53.4862 32.25,38.6736 43.2964,53.8561 52.4473,45.8615 38.5811,32.5423 52.3137,17.6211 41.4633,8.77709 32.25,25.4862 z"
 style="fill:#ffffff;fill-opacity:1;fill-rule:nonzero;stroke:#0072b8;stroke-width:0.6;stroke-miterlimit:4;stroke-opacity:1;stroke-dasharray:none" />
</g>
</g>
</svg>
