<?xml version="1.0" encoding="UTF-8" standalone="no"?>
<!-- Created with Inkscape (http://www.inkscape.org/) -->

<svg
 xmlns:dc="http://purl.org/dc/elements/1.1/"
 xmlns:cc="http://creativecommons.org/ns#"
 xmlns:rdf="http://www.w3.org/1999/02/22-rdf-syntax-ns#"
 xmlns:svg="http://www.w3.org/2000/svg"
 xmlns="http://www.w3.org/2000/svg"
 xmlns:sodipodi="http://sodipodi.sourceforge.net/DTD/sodipodi-0.dtd"
 xmlns:inkscape="http://www.inkscape.org/namespaces/inkscape"
 width="640"
 height="512"
 id="svg3157"
 version="1.1"
 inkscape:version="0.48.1 r9760"
 sodipodi:docname="button-tutorial2.svg"
 inkscape:export-filename="/tmp/squarebutton-tutorial.png"
 inkscape:export-xdpi="90"
 inkscape:export-ydpi="90">
<defs
 id="defs3159">
<filter
 color-interpolation-filters="sRGB"
 inkscape:collect="always"
 id="filter4027-0">
<feGaussianBlur
 inkscape:collect="always"
 stdDeviation="0.64"
 id="feGaussianBlur4029-9" />
</filter>
</defs>
<sodipodi:namedview
 id="base"
 pagecolor="#ffffff"
 bordercolor="#666666"
 borderopacity="1.0"
 inkscape:pageopacity="1"
 inkscape:pageshadow="2"
 inkscape:zoom="0.668989"
 inkscape:cx="480.558"
 inkscape:cy="155.644"
 inkscape:document-units="px"
 inkscape:current-layer="layer2"
 showgrid="false"
 showguides="true"
 inkscape:guide-bbox="true"
 inkscape:snap-global="false"
 inkscape:window-width="1440"
 inkscape:window-height="849"
 inkscape:window-x="0"
 inkscape:window-y="24"
 inkscape:window-maximized="1">
<sodipodi:guide
 orientation="0,1"
 position="187.614,1025.8"
 id="guide3369" />
<sodipodi:guide
 orientation="0,1"
 position="189.199,490.438"
 id="guide4350" />
<sodipodi:guide
 orientation="1,0"
 position="216.68,477.225"
 id="guide4362" />
<sodipodi:guide
 orientation="1,0"
 position="433.361,439.703"
 id="guide4376" />
<sodipodi:guide
 orientation="0,1"
 position="200.302,249.63"
 id="guide4411" />
</sodipodi:namedview>
<metadata
 id="metadata3162">
<rdf:RDF>
<cc:Work
 rdf:about="">
<dc:format>image/svg+xml</dc:format>
<dc:type
 rdf:resource="http://purl.org/dc/dcmitype/StillImage" />
<dc:title />
</cc:Work>
</rdf:RDF>
</metadata>
<g
 inkscape:label="Plus/Minus Buttons"
 inkscape:groupmode="layer"
 id="layer1"
 transform="translate(0,-540.351)"
 style="display:none">
<g
 transform="matrix(1.71811,0,0,1.74179,-450.065,-25.4462)"
 id="g3335"
 style="display:inline">
<path
 inkscape:connector-curvature="0"
 id="path3337"
 d="M 451.63,191.568 C 457.841,197.064 461.786,205.09 461.786,214.036 461.786,230.605 448.355,244.036 431.786,244.036 425.573,244.036 419.793,242.146 415.005,238.911 420.288,243.557 427.198,246.38 434.786,246.38 451.355,246.38 464.786,232.949 464.786,216.38 464.786,206.056 459.569,196.965 451.63,191.568 z"
 style="fill:#000000;fill-opacity:0.446237;fill-rule:nonzero;stroke:none;display:inline;filter:url(#filter4027-0)"
 transform="matrix(1.01844,0,0,1.01004,-110.454,155.991)" />
<path
 transform="matrix(0.954787,0,0,0.946912,300.599,343.197)"
 d="M 64,32 A 32,32 0 1 1 0,32 32,32 0 1 1 64,32 z"
 sodipodi:ry="32"
 sodipodi:rx="32"
 sodipodi:cy="32"
 sodipodi:cx="32"
 id="path3339"
 style="fill:#0094f1;fill-opacity:1;fill-rule:nonzero;stroke:none;display:inline"
 sodipodi:type="arc" />
<path
 transform="matrix(0.928344,0,0,0.920687,301.4,344.289)"
 d="M 64,32 A 32,32 0 1 1 0,32 32,32 0 1 1 64,32 z"
 sodipodi:ry="32"
 sodipodi:rx="32"
 sodipodi:cy="32"
 sodipodi:cx="32"
 id="path3341"
 style="fill:none;stroke:#6ec7ff;stroke-width:2.583536;stroke-miterlimit:4;stroke-opacity:1;stroke-dasharray:none;display:inline"
 sodipodi:type="arc" />
<path
 style="fill:#ffffff;fill-opacity:0.446237;fill-rule:nonzero;stroke:none"
 d="M 358.779,370.151 C 356.97,357.446 345.543,346.271 330.808,346.271 316.074,346.271 306.196,357.315 303.225,370.151 320.597,361.341 338.666,357.895 358.779,370.151 z"
 id="path3343"
 inkscape:connector-curvature="0"
 sodipodi:nodetypes="cscc" />
<path
 sodipodi:type="arc"
 style="fill:none;stroke:#0072b8;stroke-width:0.636014;stroke-miterlimit:4;stroke-opacity:1;stroke-dasharray:none;display:inline"
 id="path3345"
 sodipodi:cx="32"
 sodipodi:cy="32"
 sodipodi:rx="32"
 sodipodi:ry="32"
 d="M 64,32 A 32,32 0 1 1 0,32 32,32 0 1 1 64,32 z"
 transform="matrix(0.880345,0,0,0.873084,302.904,345.832)" />
</g>
<flowRoot
 xml:space="preserve"
 id="flowRoot3202"
 style="font-size:20px;font-style:normal;font-variant:normal;font-weight:normal;font-stretch:normal;line-height:125%;letter-spacing:0px;word-spacing:0px;fill:#000000;fill-opacity:1;stroke:none;font-family:Arial;-inkscape-font-specification:Arial"><flowRegion
 id="flowRegion3204"><rect
 id="rect3206"
 width="206.655"
 height="51.5703"
 x="101.646"
 y="-63.5002"
 style="font-size:20px" /></flowRegion><flowPara
 id="flowPara3208" /></flowRoot><flowRoot
 xml:space="preserve"
 id="flowRoot3210"
 style="font-size:14px;font-style:normal;font-variant:normal;font-weight:normal;font-stretch:normal;line-height:125%;letter-spacing:0px;word-spacing:0px;fill:#000000;fill-opacity:1;stroke:none;font-family:Arial;-inkscape-font-specification:Arial"
 transform="translate(44.8438,-44.8438)"><flowRegion
 id="flowRegion3212"><rect
 id="rect3214"
 width="224.966"
 height="59.418"
 x="100.151"
 y="-81.8114"
 style="font-size:14px" /></flowRegion><flowPara
 id="flowPara3216">I will create buttons for +/-, to be used to increase/decrease values for example.</flowPara></flowRoot><rect
 style="fill:#ffffff;fill-opacity:1;fill-rule:nonzero;stroke:none"
 id="rect3240"
 width="64.7385"
 height="12.7591"
 x="86.6085"
 y="619.115"
 ry="1.96481" />
<flowRoot
 xml:space="preserve"
 id="flowRoot3256"
 style="font-size:8px;font-style:normal;font-variant:normal;font-weight:normal;font-stretch:normal;line-height:125%;letter-spacing:0px;word-spacing:0px;fill:#000000;fill-opacity:1;stroke:none;font-family:Arial;-inkscape-font-specification:Arial"
 transform="matrix(1.2909,0,0,1.2909,45.3122,689.051)"><flowRegion
 id="flowRegion3258"><rect
 id="rect3260"
 width="134.028"
 height="55.5846"
 x="4.49216"
 y="2.51908"
 style="font-size:8px" /></flowRegion><flowPara
 id="flowPara3262"
 style="font-size:12px">First create a rectangle with round corners</flowPara></flowRoot><g
 style="display:inline"
 id="g3347"
 transform="matrix(1.71811,0,0,1.74179,-255.052,-26.0482)">
<path
 transform="matrix(1.01844,0,0,1.01004,-110.454,155.991)"
 style="fill:#000000;fill-opacity:0.446237;fill-rule:nonzero;stroke:none;display:inline;filter:url(#filter4027-0)"
 d="M 451.63,191.568 C 457.841,197.064 461.786,205.09 461.786,214.036 461.786,230.605 448.355,244.036 431.786,244.036 425.573,244.036 419.793,242.146 415.005,238.911 420.288,243.557 427.198,246.38 434.786,246.38 451.355,246.38 464.786,232.949 464.786,216.38 464.786,206.056 459.569,196.965 451.63,191.568 z"
 id="path3349"
 inkscape:connector-curvature="0" />
<path
 sodipodi:type="arc"
 style="fill:#0094f1;fill-opacity:1;fill-rule:nonzero;stroke:none;display:inline"
 id="path3351"
 sodipodi:cx="32"
 sodipodi:cy="32"
 sodipodi:rx="32"
 sodipodi:ry="32"
 d="M 64,32 A 32,32 0 1 1 0,32 32,32 0 1 1 64,32 z"
 transform="matrix(0.954787,0,0,0.946912,300.599,343.197)" />
<path
 sodipodi:type="arc"
 style="fill:none;stroke:#6ec7ff;stroke-width:2.583536;stroke-miterlimit:4;stroke-opacity:1;stroke-dasharray:none;display:inline"
 id="path3353"
 sodipodi:cx="32"
 sodipodi:cy="32"
 sodipodi:rx="32"
 sodipodi:ry="32"
 d="M 64,32 A 32,32 0 1 1 0,32 32,32 0 1 1 64,32 z"
 transform="matrix(0.928344,0,0,0.920687,301.4,344.289)" />
<path
 sodipodi:nodetypes="cscc"
 inkscape:connector-curvature="0"
 id="path3355"
 d="M 358.779,370.151 C 356.97,357.446 345.543,346.271 330.808,346.271 316.074,346.271 306.196,357.315 303.225,370.151 320.597,361.341 338.666,357.895 358.779,370.151 z"
 style="fill:#ffffff;fill-opacity:0.446237;fill-rule:nonzero;stroke:none" />
<path
 transform="matrix(0.880345,0,0,0.873084,302.904,345.832)"
 d="M 64,32 A 32,32 0 1 1 0,32 32,32 0 1 1 64,32 z"
 sodipodi:ry="32"
 sodipodi:rx="32"
 sodipodi:cy="32"
 sodipodi:cx="32"
 id="path3357"
 style="fill:none;stroke:#0072b8;stroke-width:0.636014;stroke-miterlimit:4;stroke-opacity:1;stroke-dasharray:none;display:inline"
 sodipodi:type="arc" />
</g>
<path
 style="fill:#ffffff;fill-opacity:1;fill-rule:nonzero;stroke:none"
 d="M 309.969,592.48 C 308.881,592.466 308.014,593.329 308,594.417 L 307.688,618.511 283.594,618.511 C 282.505,618.511 281.625,619.391 281.625,620.48 L 281.625,629.292 C 281.625,630.38 282.505,631.261 283.594,631.261 L 307.531,631.261 307.25,655.229 C 307.237,656.318 308.099,657.185 309.188,657.198 L 318,657.323 C 319.089,657.337 319.987,656.474 320,655.386 L 320.313,631.261 344.407,631.261 C 345.495,631.261 346.375,630.38 346.375,629.292 L 346.375,620.48 C 346.375,619.391 345.495,618.511 344.407,618.511 L 320.469,618.511 320.75,594.573 C 320.764,593.485 319.901,592.587 318.813,592.573 L 309.969,592.48 z"
 id="rect3359"
 inkscape:connector-curvature="0" />
<flowRoot
 transform="matrix(1.2909,0,0,1.2909,240.326,688.449)"
 style="font-size:8px;font-style:normal;font-variant:normal;font-weight:normal;font-stretch:normal;line-height:125%;letter-spacing:0px;word-spacing:0px;fill:#000000;fill-opacity:1;stroke:none;font-family:Arial;-inkscape-font-specification:Arial"
 id="flowRoot3361"
 xml:space="preserve"><flowRegion
 id="flowRegion3363"><rect
 style="font-size:8px"
 y="2.51908"
 x="4.49216"
 height="68.6115"
 width="137.212"
 id="rect3365" /></flowRegion><flowPara
 style="font-size:12px"
 id="flowPara3367">Now duplicate the rectangle and rotate it 90 degrees, and join both using Path-&gt;union.</flowPara></flowRoot><g
 transform="matrix(1.71811,0,0,1.74179,-46.5287,-26.0482)"
 id="g3374"
 style="display:inline">
<path
 inkscape:connector-curvature="0"
 id="path3376"
 d="M 451.63,191.568 C 457.841,197.064 461.786,205.09 461.786,214.036 461.786,230.605 448.355,244.036 431.786,244.036 425.573,244.036 419.793,242.146 415.005,238.911 420.288,243.557 427.198,246.38 434.786,246.38 451.355,246.38 464.786,232.949 464.786,216.38 464.786,206.056 459.569,196.965 451.63,191.568 z"
 style="fill:#000000;fill-opacity:0.446237;fill-rule:nonzero;stroke:none;display:inline;filter:url(#filter4027-0)"
 transform="matrix(1.01844,0,0,1.01004,-110.454,155.991)" />
<path
 transform="matrix(0.954787,0,0,0.946912,300.599,343.197)"
 d="M 64,32 A 32,32 0 1 1 0,32 32,32 0 1 1 64,32 z"
 sodipodi:ry="32"
 sodipodi:rx="32"
 sodipodi:cy="32"
 sodipodi:cx="32"
 id="path3378"
 style="fill:#0094f1;fill-opacity:1;fill-rule:nonzero;stroke:none;display:inline"
 sodipodi:type="arc" />
<path
 transform="matrix(0.928344,0,0,0.920687,301.4,344.289)"
 d="M 64,32 A 32,32 0 1 1 0,32 32,32 0 1 1 64,32 z"
 sodipodi:ry="32"
 sodipodi:rx="32"
 sodipodi:cy="32"
 sodipodi:cx="32"
 id="path3380"
 style="fill:none;stroke:#6ec7ff;stroke-width:2.583536;stroke-miterlimit:4;stroke-opacity:1;stroke-dasharray:none;display:inline"
 sodipodi:type="arc" />
<path
 style="fill:#ffffff;fill-opacity:0.446237;fill-rule:nonzero;stroke:none"
 d="M 358.779,370.151 C 356.97,357.446 345.543,346.271 330.808,346.271 316.074,346.271 306.196,357.315 303.225,370.151 320.597,361.341 338.666,357.895 358.779,370.151 z"
 id="path3382"
 inkscape:connector-curvature="0"
 sodipodi:nodetypes="cscc" />
<path
 sodipodi:type="arc"
 style="fill:none;stroke:#0072b8;stroke-width:0.636014;stroke-miterlimit:4;stroke-opacity:1;stroke-dasharray:none;display:inline"
 id="path3384"
 sodipodi:cx="32"
 sodipodi:cy="32"
 sodipodi:rx="32"
 sodipodi:ry="32"
 d="M 64,32 A 32,32 0 1 1 0,32 32,32 0 1 1 64,32 z"
 transform="matrix(0.880345,0,0,0.873084,302.904,345.832)" />
</g>
<path
 id="path3386"
 d="M 518.493,592.48 C 517.405,592.466 516.538,593.329 516.524,594.417 L 516.212,618.511 492.118,618.511 C 491.029,618.511 490.149,619.391 490.149,620.48 L 490.149,629.292 C 490.149,630.381 491.029,631.261 492.118,631.261 L 516.055,631.261 515.774,655.229 C 515.761,656.318 516.623,657.185 517.712,657.198 L 526.524,657.323 C 527.613,657.337 528.511,656.474 528.524,655.386 L 528.837,631.261 552.931,631.261 C 554.019,631.261 554.899,630.381 554.899,629.292 L 554.899,620.48 C 554.899,619.391 554.019,618.511 552.931,618.511 L 528.993,618.511 529.274,594.573 C 529.288,593.485 528.425,592.587 527.337,592.573 L 518.493,592.48 z"
 style="fill:#ffffff;fill-opacity:1;fill-rule:nonzero;stroke:#0072b8;stroke-opacity:1"
 inkscape:connector-curvature="0" />
<flowRoot
 xml:space="preserve"
 id="flowRoot3388"
 style="font-size:8px;font-style:normal;font-variant:normal;font-weight:normal;font-stretch:normal;line-height:125%;letter-spacing:0px;word-spacing:0px;fill:#000000;fill-opacity:1;stroke:none;font-family:Arial;-inkscape-font-specification:Arial"
 transform="matrix(1.2909,0,0,1.2909,448.85,688.449)"><flowRegion
 id="flowRegion3390"><rect
 id="rect3392"
 width="137.212"
 height="68.6115"
 x="4.49216"
 y="2.51908"
 style="font-size:8px" /></flowRegion><flowPara
 id="flowPara3394"
 style="font-size:12px">Add stroke to the path using the button inner border color.</flowPara></flowRoot><g
 style="display:inline"
 id="g4168"
 transform="matrix(1.71811,0,0,1.74179,-451.123,211.586)">
<path
 transform="matrix(1.01844,0,0,1.01004,-110.454,155.991)"
 style="fill:#000000;fill-opacity:0.446237;fill-rule:nonzero;stroke:none;display:inline;filter:url(#filter4027-0)"
 d="M 451.63,191.568 C 457.841,197.064 461.786,205.09 461.786,214.036 461.786,230.605 448.355,244.036 431.786,244.036 425.573,244.036 419.793,242.146 415.005,238.911 420.288,243.557 427.198,246.38 434.786,246.38 451.355,246.38 464.786,232.949 464.786,216.38 464.786,206.056 459.569,196.965 451.63,191.568 z"
 id="path4170"
 inkscape:connector-curvature="0" />
<path
 sodipodi:type="arc"
 style="fill:#0094f1;fill-opacity:1;fill-rule:nonzero;stroke:none;display:inline"
 id="path4172"
 sodipodi:cx="32"
 sodipodi:cy="32"
 sodipodi:rx="32"
 sodipodi:ry="32"
 d="M 64,32 A 32,32 0 1 1 0,32 32,32 0 1 1 64,32 z"
 transform="matrix(0.954787,0,0,0.946912,300.599,343.197)" />
<path
 sodipodi:type="arc"
 style="fill:none;stroke:#6ec7ff;stroke-width:2.583536;stroke-miterlimit:4;stroke-opacity:1;stroke-dasharray:none;display:inline"
 id="path4174"
 sodipodi:cx="32"
 sodipodi:cy="32"
 sodipodi:rx="32"
 sodipodi:ry="32"
 d="M 64,32 A 32,32 0 1 1 0,32 32,32 0 1 1 64,32 z"
 transform="matrix(0.928344,0,0,0.920687,301.4,344.289)" />
<path
 sodipodi:nodetypes="cscc"
 inkscape:connector-curvature="0"
 id="path4176"
 d="M 358.779,370.151 C 356.97,357.446 345.543,346.271 330.808,346.271 316.074,346.271 306.196,357.315 303.225,370.151 320.597,361.341 338.666,357.895 358.779,370.151 z"
 style="fill:#ffffff;fill-opacity:0.446237;fill-rule:nonzero;stroke:none" />
<path
 transform="matrix(0.880345,0,0,0.873084,302.904,345.832)"
 d="M 64,32 A 32,32 0 1 1 0,32 32,32 0 1 1 64,32 z"
 sodipodi:ry="32"
 sodipodi:rx="32"
 sodipodi:cy="32"
 sodipodi:cx="32"
 id="path4178"
 style="fill:none;stroke:#0072b8;stroke-width:0.636014;stroke-miterlimit:4;stroke-opacity:1;stroke-dasharray:none;display:inline"
 sodipodi:type="arc" />
</g>
<path
 id="path4192"
 d="M 115.335,832.355 C 114.247,832.341 113.38,833.204 113.366,834.292 L 113.054,858.386 88.9598,858.386 C 87.8708,858.386 86.9908,859.266 86.9908,860.355 L 86.9908,869.167 C 86.9908,870.256 87.8708,871.136 88.9598,871.136 L 112.897,871.136 112.616,895.104 C 112.603,896.193 113.465,897.06 114.554,897.073 L 123.366,897.198 C 124.455,897.212 125.352,896.349 125.365,895.261 L 125.678,871.136 149.77,871.136 C 150.858,871.136 151.738,870.256 151.738,869.167 L 151.738,860.355 C 151.738,859.266 150.858,858.386 149.77,858.386 L 125.834,858.386 126.114,834.448 C 126.128,833.36 125.266,832.462 124.179,832.448 L 115.335,832.355 z"
 style="fill:#000000;fill-opacity:0.196078;fill-rule:nonzero;stroke:none"
 inkscape:connector-curvature="0" />
<path
 inkscape:connector-curvature="0"
 style="fill:#ffffff;fill-opacity:1;fill-rule:nonzero;stroke:#0072b8;stroke-opacity:1"
 d="M 113.898,830.114 C 112.81,830.1 111.943,830.963 111.929,832.051 L 111.617,856.145 87.5232,856.145 C 86.4342,856.145 85.5542,857.025 85.5542,858.114 L 85.5542,866.926 C 85.5542,868.015 86.4342,868.895 87.5232,868.895 L 111.46,868.895 111.179,892.863 C 111.166,893.952 112.028,894.819 113.117,894.832 L 121.929,894.957 C 123.018,894.971 123.916,894.108 123.929,893.02 L 124.242,868.895 148.337,868.895 C 149.425,868.895 150.305,868.015 150.305,866.926 L 150.305,858.114 C 150.305,857.025 149.425,856.145 148.337,856.145 L 124.398,856.145 124.679,832.207 C 124.693,831.119 123.83,830.221 122.742,830.207 L 113.898,830.114 z"
 id="path4180" />
<flowRoot
 transform="matrix(1.2909,0,0,1.2909,44.2552,926.083)"
 style="font-size:8px;font-style:normal;font-variant:normal;font-weight:normal;font-stretch:normal;line-height:125%;letter-spacing:0px;word-spacing:0px;fill:#000000;fill-opacity:1;stroke:none;font-family:Arial;-inkscape-font-specification:Arial"
 id="flowRoot4182"
 xml:space="preserve"><flowRegion
 id="flowRegion4184"><rect
 style="font-size:8px"
 y="2.51908"
 x="4.49216"
 height="68.6115"
 width="137.212"
 id="rect4186" /></flowRegion><flowPara
 style="font-size:12px"
 id="flowPara4188">Duplicate the path and change to black color with transparence to make the shadow.</flowPara></flowRoot><g
 style="display:inline"
 id="g4213"
 transform="matrix(1.71811,0,0,1.74179,-249.367,211.68)">
<path
 transform="matrix(1.01844,0,0,1.01004,-110.454,155.991)"
 style="fill:#000000;fill-opacity:0.446237;fill-rule:nonzero;stroke:none;display:inline;filter:url(#filter4027-0)"
 d="M 451.63,191.568 C 457.841,197.064 461.786,205.09 461.786,214.036 461.786,230.605 448.355,244.036 431.786,244.036 425.573,244.036 419.793,242.146 415.005,238.911 420.288,243.557 427.198,246.38 434.786,246.38 451.355,246.38 464.786,232.949 464.786,216.38 464.786,206.056 459.569,196.965 451.63,191.568 z"
 id="path4215"
 inkscape:connector-curvature="0" />
<path
 sodipodi:type="arc"
 style="fill:#0094f1;fill-opacity:1;fill-rule:nonzero;stroke:none;display:inline"
 id="path4217"
 sodipodi:cx="32"
 sodipodi:cy="32"
 sodipodi:rx="32"
 sodipodi:ry="32"
 d="M 64,32 A 32,32 0 1 1 0,32 32,32 0 1 1 64,32 z"
 transform="matrix(0.954787,0,0,0.946912,300.599,343.197)" />
<path
 sodipodi:type="arc"
 style="fill:none;stroke:#6ec7ff;stroke-width:2.583536;stroke-miterlimit:4;stroke-opacity:1;stroke-dasharray:none;display:inline"
 id="path4219"
 sodipodi:cx="32"
 sodipodi:cy="32"
 sodipodi:rx="32"
 sodipodi:ry="32"
 d="M 64,32 A 32,32 0 1 1 0,32 32,32 0 1 1 64,32 z"
 transform="matrix(0.928344,0,0,0.920687,301.4,344.289)" />
<path
 sodipodi:nodetypes="cscc"
 inkscape:connector-curvature="0"
 id="path4221"
 d="M 358.779,370.151 C 356.97,357.446 345.543,346.271 330.808,346.271 316.074,346.271 306.196,357.315 303.225,370.151 320.597,361.341 338.666,357.895 358.779,370.151 z"
 style="fill:#ffffff;fill-opacity:0.446237;fill-rule:nonzero;stroke:none" />
<path
 transform="matrix(0.880345,0,0,0.873084,302.904,345.832)"
 d="M 64,32 A 32,32 0 1 1 0,32 32,32 0 1 1 64,32 z"
 sodipodi:ry="32"
 sodipodi:rx="32"
 sodipodi:cy="32"
 sodipodi:cx="32"
 id="path4223"
 style="fill:none;stroke:#0072b8;stroke-width:0.636014;stroke-miterlimit:4;stroke-opacity:1;stroke-dasharray:none;display:inline"
 sodipodi:type="arc" />
</g>
<rect
 style="fill:#000000;fill-opacity:0.196078;fill-rule:nonzero;stroke:none"
 id="rect4237"
 width="64.7385"
 height="12.7591"
 x="289.024"
 y="858.355"
 ry="1.96481" />
<rect
 ry="1.96481"
 y="856.241"
 x="287.306"
 height="12.7591"
 width="64.7385"
 id="rect4225"
 style="fill:#ffffff;fill-opacity:1;fill-rule:nonzero;stroke:#0072b8;stroke-opacity:1" />
<flowRoot
 transform="matrix(1.2909,0,0,1.2909,246.01,926.177)"
 style="font-size:8px;font-style:normal;font-variant:normal;font-weight:normal;font-stretch:normal;line-height:125%;letter-spacing:0px;word-spacing:0px;fill:#000000;fill-opacity:1;stroke:none;font-family:Arial;-inkscape-font-specification:Arial"
 id="flowRoot4227"
 xml:space="preserve"><flowRegion
 id="flowRegion4229"><rect
 style="font-size:8px"
 y="2.51908"
 x="4.49216"
 height="55.5846"
 width="134.028"
 id="rect4231" /></flowRegion><flowPara
 style="font-size:12px"
 id="flowPara4233">Repeat the steps to make the minus/decrease button.</flowPara></flowRoot><flowRoot
 xml:space="preserve"
 id="flowRoot4239"
 style="font-size:1px;font-style:normal;font-variant:normal;font-weight:normal;font-stretch:normal;line-height:125%;letter-spacing:0px;word-spacing:0px;fill:#000000;fill-opacity:1;stroke:none;font-family:Arial;-inkscape-font-specification:Arial"><flowRegion
 id="flowRegion4241"><rect
 id="rect4243"
 width="237.82"
 height="51.7919"
 x="139.521"
 y="766.978" /></flowRegion><flowPara
 id="flowPara4245" /></flowRoot><g
 id="g4271"
 transform="matrix(0.637359,0,0,0.637359,-827.794,272.462)"
 inkscape:export-filename="/tmp/button-tutorial2-example.png"
 inkscape:export-xdpi="90"
 inkscape:export-ydpi="90">
<g
 style="display:inline"
 id="g4255"
 transform="matrix(1.71811,0,0,1.74179,-183.08,8.6108)">
<path
 transform="matrix(1.01844,0,0,1.01004,-110.454,155.991)"
 style="fill:#000000;fill-opacity:0.446237;fill-rule:nonzero;stroke:none;display:inline;filter:url(#filter4027-0)"
 d="M 451.63,191.568 C 457.841,197.064 461.786,205.09 461.786,214.036 461.786,230.605 448.355,244.036 431.786,244.036 425.573,244.036 419.793,242.146 415.005,238.911 420.288,243.557 427.198,246.38 434.786,246.38 451.355,246.38 464.786,232.949 464.786,216.38 464.786,206.056 459.569,196.965 451.63,191.568 z"
 id="path4257"
 inkscape:connector-curvature="0" />
<path
 sodipodi:type="arc"
 style="fill:#0094f1;fill-opacity:1;fill-rule:nonzero;stroke:none;display:inline"
 id="path4259"
 sodipodi:cx="32"
 sodipodi:cy="32"
 sodipodi:rx="32"
 sodipodi:ry="32"
 d="M 64,32 A 32,32 0 1 1 0,32 32,32 0 1 1 64,32 z"
 transform="matrix(0.954787,0,0,0.946912,300.599,343.197)" />
<path
 sodipodi:type="arc"
 style="fill:none;stroke:#6ec7ff;stroke-width:2.583536;stroke-miterlimit:4;stroke-opacity:1;stroke-dasharray:none;display:inline"
 id="path4261"
 sodipodi:cx="32"
 sodipodi:cy="32"
 sodipodi:rx="32"
 sodipodi:ry="32"
 d="M 64,32 A 32,32 0 1 1 0,32 32,32 0 1 1 64,32 z"
 transform="matrix(0.928344,0,0,0.920687,301.4,344.289)" />
<path
 sodipodi:nodetypes="cscc"
 inkscape:connector-curvature="0"
 id="path4263"
 d="M 358.779,370.151 C 356.97,357.446 345.543,346.271 330.808,346.271 316.074,346.271 306.196,357.315 303.225,370.151 320.597,361.341 338.666,357.895 358.779,370.151 z"
 style="fill:#ffffff;fill-opacity:0.446237;fill-rule:nonzero;stroke:none" />
<path
 transform="matrix(0.880345,0,0,0.873084,302.904,345.832)"
 d="M 64,32 A 32,32 0 1 1 0,32 32,32 0 1 1 64,32 z"
 sodipodi:ry="32"
 sodipodi:rx="32"
 sodipodi:cy="32"
 sodipodi:cx="32"
 id="path4265"
 style="fill:none;stroke:#0072b8;stroke-width:0.636014;stroke-miterlimit:4;stroke-opacity:1;stroke-dasharray:none;display:inline"
 sodipodi:type="arc" />
</g>
<rect
 style="fill:#000000;fill-opacity:0.196078;fill-rule:nonzero;stroke:none"
 id="rect4267"
 width="64.7385"
 height="12.7591"
 x="355.311"
 y="655.286"
 ry="1.96481" />
<rect
 ry="1.96481"
 y="653.172"
 x="353.593"
 height="12.7591"
 width="64.7385"
 id="rect4269"
 style="fill:#ffffff;fill-opacity:1;fill-rule:nonzero;stroke:#0072b8;stroke-opacity:1" />
</g>
<g
 id="g4297"
 transform="matrix(0.652996,0,0,0.652996,-478.878,271.316)"
 inkscape:export-filename="/tmp/button-tutorial2-example.png"
 inkscape:export-xdpi="90"
 inkscape:export-ydpi="90">
<g
 style="display:inline"
 id="g4281"
 transform="matrix(1.71811,0,0,1.74179,-29.8195,-5.91791)">
<path
 transform="matrix(1.01844,0,0,1.01004,-110.454,155.991)"
 style="fill:#000000;fill-opacity:0.446237;fill-rule:nonzero;stroke:none;display:inline;filter:url(#filter4027-0)"
 d="M 451.63,191.568 C 457.841,197.064 461.786,205.09 461.786,214.036 461.786,230.605 448.355,244.036 431.786,244.036 425.573,244.036 419.793,242.146 415.005,238.911 420.288,243.557 427.198,246.38 434.786,246.38 451.355,246.38 464.786,232.949 464.786,216.38 464.786,206.056 459.569,196.965 451.63,191.568 z"
 id="path4283"
 inkscape:connector-curvature="0" />
<path
 sodipodi:type="arc"
 style="fill:#0094f1;fill-opacity:1;fill-rule:nonzero;stroke:none;display:inline"
 id="path4285"
 sodipodi:cx="32"
 sodipodi:cy="32"
 sodipodi:rx="32"
 sodipodi:ry="32"
 d="M 64,32 A 32,32 0 1 1 0,32 32,32 0 1 1 64,32 z"
 transform="matrix(0.954787,0,0,0.946912,300.599,343.197)" />
<path
 sodipodi:type="arc"
 style="fill:none;stroke:#6ec7ff;stroke-width:2.583536;stroke-miterlimit:4;stroke-opacity:1;stroke-dasharray:none;display:inline"
 id="path4287"
 sodipodi:cx="32"
 sodipodi:cy="32"
 sodipodi:rx="32"
 sodipodi:ry="32"
 d="M 64,32 A 32,32 0 1 1 0,32 32,32 0 1 1 64,32 z"
 transform="matrix(0.928344,0,0,0.920687,301.4,344.289)" />
<path
 sodipodi:nodetypes="cscc"
 inkscape:connector-curvature="0"
 id="path4289"
 d="M 358.779,370.151 C 356.97,357.446 345.543,346.271 330.808,346.271 316.074,346.271 306.196,357.315 303.225,370.151 320.597,361.341 338.666,357.895 358.779,370.151 z"
 style="fill:#ffffff;fill-opacity:0.446237;fill-rule:nonzero;stroke:none" />
<path
 transform="matrix(0.880345,0,0,0.873084,302.904,345.832)"
 d="M 64,32 A 32,32 0 1 1 0,32 32,32 0 1 1 64,32 z"
 sodipodi:ry="32"
 sodipodi:rx="32"
 sodipodi:cy="32"
 sodipodi:cx="32"
 id="path4291"
 style="fill:none;stroke:#0072b8;stroke-width:0.636014;stroke-miterlimit:4;stroke-opacity:1;stroke-dasharray:none;display:inline"
 sodipodi:type="arc" />
</g>
<path
 id="path4293"
 d="M 536.639,614.851 C 535.551,614.837 534.684,615.7 534.67,616.788 L 534.358,640.882 510.264,640.882 C 509.175,640.882 508.295,641.762 508.295,642.851 L 508.295,651.663 C 508.295,652.752 509.175,653.632 510.264,653.632 L 534.201,653.632 533.92,677.6 C 533.907,678.689 534.769,679.556 535.858,679.569 L 544.67,679.694 C 545.758,679.708 546.656,678.845 546.669,677.757 L 546.981,653.632 571.074,653.632 C 572.162,653.632 573.042,652.752 573.042,651.663 L 573.042,642.851 C 573.042,641.762 572.162,640.882 571.074,640.882 L 547.137,640.882 547.418,616.944 C 547.432,615.856 546.57,614.958 545.482,614.944 L 536.639,614.851 z"
 style="fill:#000000;fill-opacity:0.196078;fill-rule:nonzero;stroke:none"
 inkscape:connector-curvature="0" />
<path
 inkscape:connector-curvature="0"
 style="fill:#ffffff;fill-opacity:1;fill-rule:nonzero;stroke:#0072b8;stroke-opacity:1"
 d="M 535.202,612.61 C 534.114,612.596 533.247,613.459 533.233,614.547 L 532.921,638.641 508.827,638.641 C 507.738,638.641 506.858,639.521 506.858,640.61 L 506.858,649.422 C 506.858,650.511 507.738,651.391 508.827,651.391 L 532.764,651.391 532.483,675.359 C 532.47,676.448 533.332,677.315 534.421,677.328 L 543.233,677.453 C 544.322,677.467 545.22,676.604 545.233,675.516 L 545.546,651.391 569.641,651.391 C 570.729,651.391 571.609,650.511 571.609,649.422 L 571.609,640.61 C 571.609,639.521 570.729,638.641 569.641,638.641 L 545.702,638.641 545.983,614.703 C 545.997,613.615 545.134,612.717 544.046,612.703 L 535.202,612.61 z"
 id="path4295" />
</g>
<flowRoot
 transform="matrix(2.83911,0,0,2.83911,-437.614,601.081)"
 style="font-size:8px;font-style:normal;font-variant:normal;font-weight:normal;font-stretch:normal;line-height:125%;letter-spacing:0px;word-spacing:0px;fill:#000000;fill-opacity:1;stroke:none;font-family:Arial;-inkscape-font-specification:Arial"
 id="flowRoot4309"
 xml:space="preserve"
 inkscape:export-filename="/tmp/button-tutorial2-example.png"
 inkscape:export-xdpi="90"
 inkscape:export-ydpi="90"><flowRegion
 id="flowRegion4311"><rect
 style="font-size:8px"
 y="2.51908"
 x="4.49216"
 height="55.5846"
 width="134.028"
 id="rect4313" /></flowRegion><flowPara
 style="font-size:12px"
 id="flowPara4315">Volume:</flowPara></flowRoot><rect
 style="fill:#000000;fill-opacity:0.196078;fill-rule:nonzero;stroke:none"
 id="rect4317"
 width="351.021"
 height="12.2044"
 x="-528.77"
 y="686.523"
 ry="4.32126"
 inkscape:export-filename="/tmp/button-tutorial2-example.png"
 inkscape:export-xdpi="90"
 inkscape:export-ydpi="90" />
<rect
 style="fill:#000000;fill-opacity:1;fill-rule:nonzero;stroke:none"
 id="rect4321"
 width="9.87973"
 height="34.8696"
 x="-433.46"
 y="676.063"
 ry="2.96192"
 inkscape:export-filename="/tmp/button-tutorial2-example.png"
 inkscape:export-xdpi="90"
 inkscape:export-ydpi="90" />
</g>
<g
 inkscape:groupmode="layer"
 id="layer2"
 inkscape:label="Square Button"
 style="display:inline">
<flowRoot
 transform="matrix(1.2909,0,0,1.2909,39.8084,166.809)"
 style="font-size:8px;font-style:normal;font-variant:normal;font-weight:normal;font-stretch:normal;line-height:125%;letter-spacing:0px;word-spacing:0px;fill:#000000;fill-opacity:1;stroke:none;display:inline;font-family:Arial;-inkscape-font-specification:Arial"
 id="flowRoot4326"
 xml:space="preserve"><flowRegion
 id="flowRegion4328"><rect
 style="font-size:8px"
 y="2.51908"
 x="4.49216"
 height="55.5846"
 width="134.028"
 id="rect4330" /></flowRegion><flowPara
 style="font-size:12px"
 id="flowPara4332">First create a rectangle with round corners</flowPara></flowRoot><rect
 style="fill:#ffccaa;fill-opacity:1;fill-rule:nonzero;stroke:none"
 id="rect4338"
 width="151.917"
 height="151.917"
 x="40.0873"
 y="8.07239"
 ry="23.1892" />
<flowRoot
 xml:space="preserve"
 id="flowRoot4340"
 style="font-size:8px;font-style:normal;font-variant:normal;font-weight:normal;font-stretch:normal;line-height:125%;letter-spacing:0px;word-spacing:0px;fill:#000000;fill-opacity:1;stroke:none;display:inline;font-family:Arial;-inkscape-font-specification:Arial"
 transform="matrix(1.2909,0,0,1.2909,237.993,167.337)"><flowRegion
 id="flowRegion4342"><rect
 id="rect4344"
 width="134.028"
 height="55.5846"
 x="4.49216"
 y="2.51908"
 style="font-size:8px" /></flowRegion><flowPara
 id="flowPara4346"
 style="font-size:12px">Duplicate the rectangle and change its color to a darker color</flowPara></flowRoot><rect
 ry="23.1892"
 y="8.60089"
 x="238.271"
 height="151.917"
 width="151.917"
 id="rect4348"
 style="fill:#ffccaa;fill-opacity:1;fill-rule:nonzero;stroke:none" />
<flowRoot
 xml:space="preserve"
 id="flowRoot4352"
 style="font-size:1px;font-style:normal;font-variant:normal;font-weight:normal;font-stretch:normal;line-height:125%;letter-spacing:0px;word-spacing:0px;fill:#000000;fill-opacity:1;stroke:none;font-family:Arial;-inkscape-font-specification:Arial"><flowRegion
 id="flowRegion4354"><rect
 id="rect4356"
 width="196.598"
 height="41.7506"
 x="198.183"
 y="200.192" /></flowRegion><flowPara
 id="flowPara4358" /></flowRoot><rect
 style="fill:#ffb380;fill-opacity:1;fill-rule:nonzero;stroke:none"
 id="rect4360"
 width="136.819"
 height="136.819"
 x="245.141"
 y="16.3003"
 ry="20.8845" />
<flowRoot
 transform="matrix(1.2909,0,0,1.2909,450.446,167.337)"
 style="font-size:8px;font-style:normal;font-variant:normal;font-weight:normal;font-stretch:normal;line-height:125%;letter-spacing:0px;word-spacing:0px;fill:#000000;fill-opacity:1;stroke:none;display:inline;font-family:Arial;-inkscape-font-specification:Arial"
 id="flowRoot4364"
 xml:space="preserve"><flowRegion
 id="flowRegion4366"><rect
 style="font-size:8px"
 y="2.51908"
 x="4.49216"
 height="55.5846"
 width="134.028"
 id="rect4368" /></flowRegion><flowPara
 style="font-size:12px"
 id="flowPara4370">Add darker stroke to the inner rectangle</flowPara></flowRoot><rect
 style="fill:#ffccaa;fill-opacity:1;fill-rule:nonzero;stroke:none"
 id="rect4372"
 width="151.917"
 height="151.917"
 x="450.724"
 y="8.60089"
 ry="23.1892" />
<rect
 ry="20.4831"
 y="17.9176"
 x="460.193"
 height="134.189"
 width="134.189"
 id="rect4374"
 style="fill:#ffb380;fill-opacity:1;fill-rule:nonzero;stroke:#d38d5f;stroke-width:2.111;stroke-miterlimit:4;stroke-opacity:1;stroke-dasharray:none" />
<flowRoot
 xml:space="preserve"
 id="flowRoot4378"
 style="font-size:8px;font-style:normal;font-variant:normal;font-weight:normal;font-stretch:normal;line-height:125%;letter-spacing:0px;word-spacing:0px;fill:#000000;fill-opacity:1;stroke:none;display:inline;font-family:Arial;-inkscape-font-specification:Arial"
 transform="matrix(1.2909,0,0,1.2909,36.1108,425.012)"><flowRegion
 id="flowRegion4380"><rect
 id="rect4382"
 width="134.317"
 height="77.2961"
 x="4.49216"
 y="2.51908"
 style="font-size:8px" /></flowRegion><flowPara
 id="flowPara4384"
 style="font-size:12px">Duplicate the inner rectangle, remove the stroke and make it transparent.</flowPara></flowRoot><rect
 ry="23.1892"
 y="262.275"
 x="36.3888"
 height="151.917"
 width="151.917"
 id="rect4386"
 style="fill:#ffccaa;fill-opacity:1;fill-rule:nonzero;stroke:none" />
<rect
 style="fill:#ffb380;fill-opacity:1;fill-rule:nonzero;stroke:#d38d5f;stroke-width:2.111;stroke-miterlimit:4;stroke-opacity:1;stroke-dasharray:none"
 id="rect4430"
 width="134.189"
 height="134.189"
 x="44.8008"
 y="271.064"
 ry="20.4831" />
<rect
 ry="20.7595"
 y="270.003"
 x="44.0516"
 height="136"
 width="136"
 id="rect4395"
 style="fill:#ffffff;fill-opacity:0.196078;fill-rule:nonzero;stroke:none" />
<flowRoot
 transform="matrix(1.2909,0,0,1.2909,249.866,425.012)"
 style="font-size:8px;font-style:normal;font-variant:normal;font-weight:normal;font-stretch:normal;line-height:125%;letter-spacing:0px;word-spacing:0px;fill:#000000;fill-opacity:1;stroke:none;display:inline;font-family:Arial;-inkscape-font-specification:Arial"
 id="flowRoot4397"
 xml:space="preserve"><flowRegion
 id="flowRegion4399"><rect
 style="font-size:8px"
 y="2.51908"
 x="4.49216"
 height="77.2961"
 width="134.317"
 id="rect4401" /></flowRegion><flowPara
 style="font-size:12px"
 id="flowPara4403">Cut the new transparent rectangle at the middle using another rectangle and path difference.</flowPara></flowRoot><rect
 style="fill:#ffccaa;fill-opacity:1;fill-rule:nonzero;stroke:none"
 id="rect4405"
 width="151.917"
 height="151.917"
 x="250.144"
 y="262.275"
 ry="23.1892" />
<rect
 ry="21.4951"
 y="267.56"
 x="255.429"
 height="140.819"
 width="140.819"
 id="rect4407"
 style="fill:#ffb380;fill-opacity:1;fill-rule:nonzero;stroke:#d38d5f;stroke-width:1.9;stroke-miterlimit:4;stroke-opacity:1;stroke-dasharray:none" />
<path
 style="fill:#ffffff;fill-opacity:0.196078;fill-rule:nonzero;stroke:none"
 d="M 276.938,267.562 C 265.029,267.562 255.438,277.154 255.438,289.062 L 255.438,313.938 396.25,313.938 396.25,289.062 C 396.25,277.154 386.658,267.562 374.75,267.562 L 276.938,267.562 z"
 id="rect4409"
 inkscape:connector-curvature="0" />
<flowRoot
 xml:space="preserve"
 id="flowRoot4416"
 style="font-size:8px;font-style:normal;font-variant:normal;font-weight:normal;font-stretch:normal;line-height:125%;letter-spacing:0px;word-spacing:0px;fill:#000000;fill-opacity:1;stroke:none;display:inline;font-family:Arial;-inkscape-font-specification:Arial"
 transform="matrix(1.2909,0,0,1.2909,455.4,425.759)"><flowRegion
 id="flowRegion4418"><rect
 id="rect4420"
 width="134.317"
 height="77.2961"
 x="4.49216"
 y="2.51908"
 style="font-size:8px" /></flowRegion><flowPara
 id="flowPara4422"
 style="font-size:12px">Modify the transparent rectangle shape to make it smoother and adjust the borders.</flowPara></flowRoot><rect
 ry="23.1892"
 y="263.022"
 x="455.678"
 height="151.917"
 width="151.917"
 id="rect4424"
 style="fill:#ffccaa;fill-opacity:1;fill-rule:nonzero;stroke:none" />
<rect
 style="fill:#ffb380;fill-opacity:1;fill-rule:nonzero;stroke:#d38d5f;stroke-width:1.9;stroke-miterlimit:4;stroke-opacity:1;stroke-dasharray:none"
 id="rect4426"
 width="140.819"
 height="140.819"
 x="460.963"
 y="268.307"
 ry="21.4951" />
<path
 id="path4428"
 d="M 483.406,268.87 C 471.497,268.87 461.972,278.462 461.906,290.37 L 461.687,330.294 C 461.687,330.294 471.966,311.679 532.435,312.043 592.56,312.404 600.817,330.108 600.817,330.108 L 600.85,290.37 C 600.86,278.461 591.258,268.87 579.35,268.87 z"
 style="fill:#ffffff;fill-opacity:0.196078;fill-rule:nonzero;stroke:none"
 inkscape:connector-curvature="0"
 sodipodi:nodetypes="sscscsss" />
<rect
 style="fill:#ffccaa;fill-opacity:1;fill-rule:nonzero;stroke:none"
 id="rect4438"
 width="151.917"
 height="151.917"
 x="253.881"
 y="550.022"
 ry="23.1892" />
<rect
 ry="21.4951"
 y="555.307"
 x="259.166"
 height="140.819"
 width="140.819"
 id="rect4440"
 style="fill:#ffb380;fill-opacity:1;fill-rule:nonzero;stroke:#d38d5f;stroke-width:1.9;stroke-miterlimit:4;stroke-opacity:1;stroke-dasharray:none" />
<path
 sodipodi:nodetypes="sscscsss"
 inkscape:connector-curvature="0"
 style="fill:#ffffff;fill-opacity:0.196078;fill-rule:nonzero;stroke:none"
 d="M 281.609,555.87 C 269.7,555.87 260.175,565.462 260.109,577.37 L 259.89,617.294 C 259.89,617.294 270.169,598.679 330.638,599.043 390.763,599.404 399.02,617.108 399.02,617.108 L 399.053,577.37 C 399.063,565.461 389.461,555.87 377.553,555.87 z"
 id="path4442" />
<path
 id="path4444"
 d="M 324.366,575.219 C 322.683,575.198 321.341,576.534 321.319,578.216 L 320.836,615.5 283.554,615.5 C 281.869,615.5 280.507,616.861 280.507,618.546 L 280.507,632.182 C 280.507,633.867 281.869,635.228 283.554,635.228 L 320.594,635.228 320.159,672.316 C 320.139,674.001 321.473,675.342 323.158,675.363 L 336.793,675.557 C 338.478,675.578 339.867,674.242 339.886,672.559 L 340.37,635.228 377.65,635.228 C 379.334,635.228 380.695,633.867 380.695,632.182 L 380.695,618.546 C 380.695,616.861 379.334,615.5 377.65,615.5 L 340.612,615.5 341.046,578.458 C 341.067,576.775 339.734,575.385 338.052,575.364 L 324.366,575.219 z"
 style="fill:#000000;fill-opacity:0.196078;fill-rule:nonzero;stroke:none;display:inline"
 inkscape:connector-curvature="0" />
<path
 inkscape:connector-curvature="0"
 style="fill:#ffffff;fill-opacity:1;fill-rule:nonzero;stroke:#d38d5f;stroke-width:1.547379;stroke-opacity:1;display:inline"
 d="M 322.143,571.752 C 320.459,571.73 319.118,573.066 319.096,574.749 L 318.613,612.032 281.331,612.032 C 279.646,612.032 278.284,613.393 278.284,615.078 L 278.284,628.714 C 278.284,630.399 279.646,631.76 281.331,631.76 L 318.37,631.76 317.936,668.848 C 317.915,670.533 319.249,671.875 320.935,671.895 L 334.57,672.089 C 336.255,672.11 337.644,670.775 337.665,669.091 L 338.149,631.76 375.433,631.76 C 377.116,631.76 378.478,630.399 378.478,628.714 L 378.478,615.078 C 378.478,613.393 377.116,612.032 375.433,612.032 L 338.39,612.032 338.825,574.99 C 338.847,573.307 337.511,571.918 335.828,571.896 L 322.143,571.752 z"
 id="path4446" />
</g>
</svg>
