<?xml version="1.0" encoding="UTF-8" standalone="no"?>
<!-- Created with Inkscape (http://www.inkscape.org/) -->

<svg
 xmlns:dc="http://purl.org/dc/elements/1.1/"
 xmlns:cc="http://creativecommons.org/ns#"
 xmlns:rdf="http://www.w3.org/1999/02/22-rdf-syntax-ns#"
 xmlns:svg="http://www.w3.org/2000/svg"
 xmlns="http://www.w3.org/2000/svg"
 xmlns:xlink="http://www.w3.org/1999/xlink"
 xmlns:sodipodi="http://sodipodi.sourceforge.net/DTD/sodipodi-0.dtd"
 xmlns:inkscape="http://www.inkscape.org/namespaces/inkscape"
 inkscape:export-ydpi="180"
 inkscape:export-xdpi="180"
 inkscape:export-filename="/home/acoppes/workspace/angryships/angryships-desktop/src/main/resources/data/gui/button-speakers.png"
 sodipodi:docname="button.svg"
 inkscape:version="0.48.1 r9760"
 version="1.1"
 id="svg3976"
 height="64px"
 width="64px">
<defs
 id="defs3978">
<linearGradient
 inkscape:collect="always"
 id="linearGradient3975">
<stop
 style="stop-color:#ffffff;stop-opacity:1;"
 offset="0"
 id="stop3977" />
<stop
 style="stop-color:#ffffff;stop-opacity:0;"
 offset="1"
 id="stop3979" />
</linearGradient>
<linearGradient
 inkscape:collect="always"
 xlink:href="#linearGradient3909"
 id="linearGradient3952"
 x1="145"
 y1="757.362"
 x2="145"
 y2="837.362"
 gradientUnits="userSpaceOnUse"
 gradientTransform="matrix(1.88889,0,0,1.88889,-228.889,-702.47)" />
<linearGradient
 id="linearGradient3909">
<stop
 id="stop3911"
 offset="0"
 style="stop-color:#ff9307;stop-opacity:1;" />
<stop
 style="stop-color:#e7e103;stop-opacity:1;"
 offset="0.5"
 id="stop3913" />
<stop
 id="stop3915"
 offset="1"
 style="stop-color:#e36900;stop-opacity:1;" />
</linearGradient>
<linearGradient
 inkscape:collect="always"
 xlink:href="#linearGradient3764"
 id="linearGradient3942"
 x1="256"
 y1="757.362"
 x2="256"
 y2="832.362"
 gradientUnits="userSpaceOnUse"
 gradientTransform="matrix(1.88889,0,0,1.88889,-228.889,-702.47)" />
<linearGradient
 id="linearGradient3764">
<stop
 id="stop3944"
 offset="0"
 style="stop-color:#030036;stop-opacity:1;" />
<stop
 style="stop-color:#000000;stop-opacity:1;"
 offset="1"
 id="stop3768" />
</linearGradient>
<linearGradient
 inkscape:collect="always"
 xlink:href="#linearGradient3867"
 id="linearGradient3899"
 x1="342.5"
 y1="254.488"
 x2="372.5"
 y2="254.518"
 gradientUnits="userSpaceOnUse"
 gradientTransform="matrix(0.001938,1.88889,-1.88889,0.001938,921.701,127.887)" />
<linearGradient
 id="linearGradient3867">
<stop
 style="stop-color:#f00000;stop-opacity:1;"
 offset="0"
 id="stop3869" />
<stop
 id="stop3871"
 offset="0.5"
 style="stop-color:#e7b203;stop-opacity:1;" />
<stop
 style="stop-color:#e30000;stop-opacity:1;"
 offset="1"
 id="stop3873" />
</linearGradient>
<linearGradient
 inkscape:collect="always"
 xlink:href="#linearGradient3909"
 id="linearGradient3907"
 x1="365"
 y1="777.362"
 x2="365"
 y2="817.362"
 gradientUnits="userSpaceOnUse"
 gradientTransform="matrix(1.88889,0,0,1.88889,-228.889,-702.47)" />
<linearGradient
 id="linearGradient3045">
<stop
 id="stop3047"
 offset="0"
 style="stop-color:#ff9307;stop-opacity:1;" />
<stop
 style="stop-color:#e7e103;stop-opacity:1;"
 offset="0.5"
 id="stop3049" />
<stop
 id="stop3051"
 offset="1"
 style="stop-color:#e36900;stop-opacity:1;" />
</linearGradient>
<linearGradient
 id="linearGradient3909-6">
<stop
 id="stop3911-9"
 offset="0"
 style="stop-color:#ff9307;stop-opacity:1;" />
<stop
 style="stop-color:#e7e103;stop-opacity:1;"
 offset="0.5"
 id="stop3913-8" />
<stop
 id="stop3915-1"
 offset="1"
 style="stop-color:#e36900;stop-opacity:1;" />
</linearGradient>
<linearGradient
 id="linearGradient3764-3">
<stop
 id="stop3944-3"
 offset="0"
 style="stop-color:#030036;stop-opacity:1;" />
<stop
 style="stop-color:#000000;stop-opacity:1;"
 offset="1"
 id="stop3768-7" />
</linearGradient>
<linearGradient
 id="linearGradient3867-8">
<stop
 style="stop-color:#f00000;stop-opacity:1;"
 offset="0"
 id="stop3869-6" />
<stop
 id="stop3871-7"
 offset="0.5"
 style="stop-color:#e7b203;stop-opacity:1;" />
<stop
 style="stop-color:#e30000;stop-opacity:1;"
 offset="1"
 id="stop3873-0" />
</linearGradient>
<linearGradient
 id="linearGradient3068">
<stop
 id="stop3070"
 offset="0"
 style="stop-color:#ff9307;stop-opacity:1;" />
<stop
 style="stop-color:#e7e103;stop-opacity:1;"
 offset="0.5"
 id="stop3072" />
<stop
 id="stop3074"
 offset="1"
 style="stop-color:#e36900;stop-opacity:1;" />
</linearGradient>
<linearGradient
 inkscape:collect="always"
 xlink:href="#linearGradient3975"
 id="linearGradient3981"
 x1="32.6202"
 y1="7.95702"
 x2="32.9503"
 y2="36.9236"
 gradientUnits="userSpaceOnUse" />
<filter
 inkscape:collect="always"
 id="filter4027">
<feGaussianBlur
 inkscape:collect="always"
 stdDeviation="0.64"
 id="feGaussianBlur4029" />
</filter>
<filter
 color-interpolation-filters="sRGB"
 inkscape:collect="always"
 id="filter4027-0">
<feGaussianBlur
 inkscape:collect="always"
 stdDeviation="0.64"
 id="feGaussianBlur4029-9" />
</filter>
</defs>
<sodipodi:namedview
 id="base"
 pagecolor="#ffffff"
 bordercolor="#666666"
 borderopacity="1.0"
 inkscape:pageopacity="0.0"
 inkscape:pageshadow="2"
 inkscape:zoom="5.40626"
 inkscape:cx="64.5761"
 inkscape:cy="39.0106"
 inkscape:current-layer="layer17"
 showgrid="false"
 inkscape:document-units="px"
 inkscape:grid-bbox="true"
 inkscape:window-width="1440"
 inkscape:window-height="849"
 inkscape:window-x="0"
 inkscape:window-y="24"
 inkscape:window-maximized="1"
 inkscape:snap-global="false"
 showguides="true"
 inkscape:guide-bbox="true">
<inkscape:grid
 type="xygrid"
 id="grid3986" />
<sodipodi:guide
 orientation="1,0"
 position="31.9999,58.4508"
 id="guide4961" />
<sodipodi:guide
 orientation="0,1"
 position="-10.375,31.5"
 id="guide4963" />
<sodipodi:guide
 orientation="0,1"
 position="-20.75,48.5"
 id="guide3895" />
<sodipodi:guide
 orientation="0,1"
 position="-26.125,15.125"
 id="guide3897" />
<sodipodi:guide
 orientation="0,1"
 position="125.41,0.924855"
 id="guide7539" />
</sodipodi:namedview>
<metadata
 id="metadata3981">
<rdf:RDF>
<cc:Work
 rdf:about="">
<dc:format>image/svg+xml</dc:format>
<dc:type
 rdf:resource="http://purl.org/dc/dcmitype/StillImage" />
<dc:title></dc:title>
</cc:Work>
</rdf:RDF>
</metadata>
<g
 inkscape:groupmode="layer"
 id="layer9"
 inkscape:label="button-pressed"
 style="display:none">
<path
 transform="matrix(1.0143,0,0,1.0198,-407.919,-187.86)"
 style="fill:#000000;fill-opacity:0.446237;fill-rule:nonzero;stroke:none;display:inline;filter:url(#filter4027-0)"
 d="M 451.63,191.568 C 457.841,197.064 461.786,205.09 461.786,214.036 461.786,230.605 448.355,244.036 431.786,244.036 425.573,244.036 419.793,242.146 415.005,238.911 420.288,243.557 427.198,246.38 434.786,246.38 451.355,246.38 464.786,232.949 464.786,216.38 464.786,206.056 459.569,196.965 451.63,191.568 z"
 id="path3079"
 inkscape:connector-curvature="0" />
<path
 sodipodi:type="arc"
 style="fill:#0094f1;fill-opacity:1;fill-rule:nonzero;stroke:none;display:inline"
 id="path3081"
 sodipodi:cx="32"
 sodipodi:cy="32"
 sodipodi:rx="32"
 sodipodi:ry="32"
 d="M 64,32 A 32,32 0 1 1 0,32 32,32 0 1 1 64,32 z"
 transform="matrix(0.950906,0,0,0.956059,1.46307,1.15428)" />
<path
 sodipodi:type="arc"
 style="fill:none;stroke:#6ec7ff;stroke-width:2.583536;stroke-miterlimit:4;stroke-opacity:1;stroke-dasharray:none;display:inline"
 id="path3083"
 sodipodi:cx="32"
 sodipodi:cy="32"
 sodipodi:rx="32"
 sodipodi:ry="32"
 d="M 64,32 A 32,32 0 1 1 0,32 32,32 0 1 1 64,32 z"
 transform="matrix(0.92457,0,0,0.929581,2.26081,2.25683)" />
<path
 transform="matrix(0.876766,0,0,0.881518,3.7587,3.81474)"
 d="M 64,32 A 32,32 0 1 1 0,32 32,32 0 1 1 64,32 z"
 sodipodi:ry="32"
 sodipodi:rx="32"
 sodipodi:cy="32"
 sodipodi:cx="32"
 id="path3087"
 style="fill:none;stroke:#0072b8;stroke-width:0.636014;stroke-miterlimit:4;stroke-opacity:1;stroke-dasharray:none;display:inline"
 sodipodi:type="arc" />
<path
 sodipodi:nodetypes="cscc"
 inkscape:connector-curvature="0"
 id="path3102"
 d="M 59.4066,36.008 C 57.6049,48.8358 46.2244,60.1187 31.5493,60.1187 16.8752,60.1187 7.03731,48.968 4.07839,36.008 14.7862,66.4058 48.1713,66.4271 59.4066,36.008 z"
 style="fill:#ffffff;fill-opacity:0.446237;fill-rule:nonzero;stroke:none" />
<path
 style="fill:#ffffff;fill-opacity:0.446237;fill-rule:nonzero;stroke:none"
 d="M 59.4066,27.9937 C 57.6049,15.1659 46.2244,3.883 31.5493,3.883 16.8752,3.883 7.03731,15.0337 4.07839,27.9937 14.7862,-2.4041 48.1713,-2.4254 59.4066,27.9937 z"
 id="path3879"
 inkscape:connector-curvature="0"
 sodipodi:nodetypes="cscc" />
</g>
<g
 inkscape:groupmode="layer"
 id="layer12"
 inkscape:label="orangebutton"
 style="display:none">
<path
 transform="matrix(1.0143,0,0,1.0198,-407.919,-187.86)"
 style="fill:#000000;fill-opacity:0.446237;fill-rule:nonzero;stroke:none;display:inline;filter:url(#filter4027-0)"
 d="M 451.63,191.568 C 457.841,197.064 461.786,205.09 461.786,214.036 461.786,230.605 448.355,244.036 431.786,244.036 425.573,244.036 419.793,242.146 415.005,238.911 420.288,243.557 427.198,246.38 434.786,246.38 451.355,246.38 464.786,232.949 464.786,216.38 464.786,206.056 459.569,196.965 451.63,191.568 z"
 id="path5094"
 inkscape:connector-curvature="0" />
<path
 sodipodi:type="arc"
 style="fill:#f1aa00;fill-opacity:1;fill-rule:nonzero;stroke:none;display:inline"
 id="path5096"
 sodipodi:cx="32"
 sodipodi:cy="32"
 sodipodi:rx="32"
 sodipodi:ry="32"
 d="M 64,32 A 32,32 0 1 1 0,32 32,32 0 1 1 64,32 z"
 transform="matrix(0.950906,0,0,0.956059,1.46307,1.15428)" />
<path
 sodipodi:type="arc"
 style="fill:none;stroke:#ffd46e;stroke-width:2.583536;stroke-miterlimit:4;stroke-opacity:1;stroke-dasharray:none;display:inline"
 id="path5098"
 sodipodi:cx="32"
 sodipodi:cy="32"
 sodipodi:rx="32"
 sodipodi:ry="32"
 d="M 64,32 A 32,32 0 1 1 0,32 32,32 0 1 1 64,32 z"
 transform="matrix(0.92457,0,0,0.929581,2.26081,2.25683)" />
<path
 sodipodi:nodetypes="cscc"
 inkscape:connector-curvature="0"
 id="path5100"
 d="M 59.4066,28.3687 C 57.6049,15.5409 46.2244,4.25798 31.5493,4.25798 16.8752,4.25798 7.03731,15.4087 4.07839,28.3687 21.3798,19.4736 39.3753,15.9943 59.4066,28.3687 z"
 style="fill:#ffffff;fill-opacity:0.446237;fill-rule:nonzero;stroke:none" />
<path
 transform="matrix(0.876766,0,0,0.881518,3.7587,3.81474)"
 d="M 64,32 A 32,32 0 1 1 0,32 32,32 0 1 1 64,32 z"
 sodipodi:ry="32"
 sodipodi:rx="32"
 sodipodi:cy="32"
 sodipodi:cx="32"
 id="path5102"
 style="fill:none;stroke:#b88200;stroke-width:0.636014;stroke-miterlimit:4;stroke-opacity:1;stroke-dasharray:none;display:inline"
 sodipodi:type="arc" />
</g>
<g
 inkscape:groupmode="layer"
 id="layer5"
 inkscape:label="button2"
 style="display:inline">
<g
 style="display:inline"
 id="g3946"
 transform="matrix(0.995935,0,0,1.00966,-297.914,-345.358)">
<path
 transform="matrix(1.01844,0,0,1.01004,-110.454,155.991)"
 style="fill:#000000;fill-opacity:0.446237;fill-rule:nonzero;stroke:none;display:inline;filter:url(#filter4027-0)"
 d="M 451.63,191.568 C 457.841,197.064 461.786,205.09 461.786,214.036 461.786,230.605 448.355,244.036 431.786,244.036 425.573,244.036 419.793,242.146 415.005,238.911 420.288,243.557 427.198,246.38 434.786,246.38 451.355,246.38 464.786,232.949 464.786,216.38 464.786,206.056 459.569,196.965 451.63,191.568 z"
 id="path3876"
 inkscape:connector-curvature="0" />
<path
 sodipodi:type="arc"
 style="fill:#0094f1;fill-opacity:1;fill-rule:nonzero;stroke:none;display:inline"
 id="path3878"
 sodipodi:cx="32"
 sodipodi:cy="32"
 sodipodi:rx="32"
 sodipodi:ry="32"
 d="M 64,32 C 64,49.6731 49.6731,64 32,64 14.3269,64 0,49.6731 0,32 0,14.3269 14.3269,0 32,0 49.6731,0 64,14.3269 64,32 z"
 transform="matrix(0.954787,0,0,0.946912,300.599,343.197)" />
<path
 sodipodi:type="arc"
 style="fill:none;stroke:#6ec7ff;stroke-width:2.583536;stroke-miterlimit:4;stroke-opacity:1;stroke-dasharray:none;display:inline"
 id="path3880"
 sodipodi:cx="32"
 sodipodi:cy="32"
 sodipodi:rx="32"
 sodipodi:ry="32"
 d="M 64,32 C 64,49.6731 49.6731,64 32,64 14.3269,64 0,49.6731 0,32 0,14.3269 14.3269,0 32,0 49.6731,0 64,14.3269 64,32 z"
 transform="matrix(0.928344,0,0,0.920687,301.4,344.289)" />
<path
 sodipodi:nodetypes="cscc"
 inkscape:connector-curvature="0"
 id="path3922"
 d="M 358.779,370.151 C 356.97,357.446 345.543,346.271 330.808,346.271 316.074,346.271 306.196,357.315 303.225,370.151 320.597,361.341 338.666,357.895 358.779,370.151 z"
 style="fill:#ffffff;fill-opacity:0.446237;fill-rule:nonzero;stroke:none" />
<path
 transform="matrix(0.880345,0,0,0.873084,302.904,345.832)"
 d="M 64,32 C 64,49.6731 49.6731,64 32,64 14.3269,64 0,49.6731 0,32 0,14.3269 14.3269,0 32,0 49.6731,0 64,14.3269 64,32 z"
 sodipodi:ry="32"
 sodipodi:rx="32"
 sodipodi:cy="32"
 sodipodi:cx="32"
 id="path3944"
 style="fill:none;stroke:#0072b8;stroke-width:0.636014;stroke-miterlimit:4;stroke-opacity:1;stroke-dasharray:none;display:inline"
 sodipodi:type="arc" />
</g>
</g>
<g
 inkscape:groupmode="layer"
 id="layer8"
 inkscape:label="button_transparent"
 style="display:none">
<g
 transform="matrix(0.995935,0,0,1.00966,-297.914,-345.358)"
 id="g5224"
 style="display:inline">
<path
 inkscape:connector-curvature="0"
 id="path5226"
 d="M 451.63,191.568 C 457.841,197.064 461.786,205.09 461.786,214.036 461.786,230.605 448.355,244.036 431.786,244.036 425.573,244.036 419.793,242.146 415.005,238.911 420.288,243.557 427.198,246.38 434.786,246.38 451.355,246.38 464.786,232.949 464.786,216.38 464.786,206.056 459.569,196.965 451.63,191.568 z"
 style="fill:#000000;fill-opacity:0.446237;fill-rule:nonzero;stroke:none;display:inline;filter:url(#filter4027-0)"
 transform="matrix(1.01844,0,0,1.01004,-110.454,155.991)" />
<path
 transform="matrix(0.954787,0,0,0.946912,300.599,343.197)"
 d="M 64,32 C 64,49.6731 49.6731,64 32,64 14.3269,64 0,49.6731 0,32 0,14.3269 14.3269,0 32,0 49.6731,0 64,14.3269 64,32 z"
 sodipodi:ry="32"
 sodipodi:rx="32"
 sodipodi:cy="32"
 sodipodi:cx="32"
 id="path5228"
 style="fill:#0094f1;fill-opacity:0.490196;fill-rule:nonzero;stroke:none;display:inline"
 sodipodi:type="arc" />
<path
 transform="matrix(0.928344,0,0,0.920687,301.4,344.289)"
 d="M 64,32 C 64,49.6731 49.6731,64 32,64 14.3269,64 0,49.6731 0,32 0,14.3269 14.3269,0 32,0 49.6731,0 64,14.3269 64,32 z"
 sodipodi:ry="32"
 sodipodi:rx="32"
 sodipodi:cy="32"
 sodipodi:cx="32"
 id="path5230"
 style="fill:none;stroke:#6ec7ff;stroke-width:2.583536;stroke-miterlimit:4;stroke-opacity:1;stroke-dasharray:none;display:inline"
 sodipodi:type="arc" />
<path
 style="fill:#ffffff;fill-opacity:0.446237;fill-rule:nonzero;stroke:none"
 d="M 358.779,370.151 C 356.97,357.446 345.543,346.271 330.808,346.271 316.074,346.271 306.196,357.315 303.225,370.151 320.597,361.341 338.666,357.895 358.779,370.151 z"
 id="path5232"
 inkscape:connector-curvature="0"
 sodipodi:nodetypes="cscc" />
<path
 sodipodi:type="arc"
 style="fill:none;stroke:#0072b8;stroke-width:0.636014;stroke-miterlimit:4;stroke-opacity:1;stroke-dasharray:none;display:inline"
 id="path5234"
 sodipodi:cx="32"
 sodipodi:cy="32"
 sodipodi:rx="32"
 sodipodi:ry="32"
 d="M 64,32 C 64,49.6731 49.6731,64 32,64 14.3269,64 0,49.6731 0,32 0,14.3269 14.3269,0 32,0 49.6731,0 64,14.3269 64,32 z"
 transform="matrix(0.880345,0,0,0.873084,302.904,345.832)" />
</g>
</g>
<g
 inkscape:groupmode="layer"
 id="layer4"
 inkscape:label="button"
 style="display:none">
<path
 style="fill:#000000;fill-opacity:0.446237;fill-rule:nonzero;stroke:none;display:inline;filter:url(#filter4027)"
 d="M 50.2817,8.22284 C 56.4927,13.7192 60.4377,21.7458 60.4377,30.6915 60.4377,47.2601 47.0067,60.6916 30.4379,60.6916 24.2247,60.6916 18.4447,58.8013 13.6567,55.5666 18.9399,60.2123 25.8497,63.0353 33.4379,63.0353 50.0067,63.0353 63.4377,49.6039 63.4377,33.0353 63.4377,22.7116 58.2207,13.6203 50.2817,8.22284 z"
 id="path4233"
 inkscape:connector-curvature="0" />
<path
 sodipodi:type="arc"
 style="fill:#6597ff;fill-opacity:0.537634;fill-rule:nonzero;stroke:none;display:inline"
 id="path3845"
 sodipodi:cx="32"
 sodipodi:cy="32"
 sodipodi:rx="32"
 sodipodi:ry="32"
 d="M 64,32 A 32,32 0 1 1 0,32 32,32 0 1 1 64,32 z"
 transform="matrix(0.9375,0,0,0.9375,2.26164,2.00008)" />
<path
 sodipodi:type="arc"
 style="fill:none;stroke:#0600c3;stroke-width:4.266667;stroke-miterlimit:4;stroke-opacity:1;stroke-dasharray:none;display:inline"
 id="path4237"
 sodipodi:cx="32"
 sodipodi:cy="32"
 sodipodi:rx="32"
 sodipodi:ry="32"
 d="M 64,32 A 32,32 0 1 1 0,32 32,32 0 1 1 64,32 z"
 transform="matrix(0.878906,0,0,0.878906,4,3.87501)" />
<path
 sodipodi:type="arc"
 style="fill:url(#linearGradient3981);fill-opacity:1;fill-rule:nonzero;stroke:none;display:inline"
 id="path4239"
 sodipodi:cx="32.764"
 sodipodi:cy="30.4513"
 sodipodi:rx="17.0687"
 sodipodi:ry="15.7607"
 d="M 49.8327,30.4513 A 17.0687,15.7607 0 1 1 15.6953,30.4513 17.0687,15.7607 0 1 1 49.8327,30.4513 z"
 transform="matrix(1.16598,0,0,0.958511,-6.13647,-7.43237)" />
</g>
<g
 id="layer1"
 inkscape:label="fire"
 inkscape:groupmode="layer"
 style="display:none">
<g
 id="g3960"
 transform="matrix(0.079726,0,0,0.08101,12.6645,-32.5465)">
<path
 sodipodi:nodetypes="ccccccc"
 inkscape:connector-curvature="0"
 id="path3875"
 d="M 26.111,709.213 45,709.213 63.889,726.213 63.889,867.88 45,888.658 26.111,888.658 C 7.2289,825.511 11.2104,766.398 26.111,709.213 z"
 style="fill:url(#linearGradient3952);fill-opacity:1;fill-rule:nonzero;stroke:none" />
<path
 sodipodi:nodetypes="ccccccc"
 inkscape:connector-curvature="0"
 id="path3877"
 d="M 63.889,726.213 C 143.403,715.959 222.359,701.618 300,699.769 375.555,699.769 394.444,718.658 432.222,737.547 L 432.222,860.325 C 394.444,879.213 375.555,888.658 300,888.658 233.889,888.658 156.56,876.229 63.889,867.88 z"
 style="fill:url(#linearGradient3942);fill-opacity:1;fill-rule:nonzero;stroke:none" />
<path
 sodipodi:nodetypes="ccccc"
 inkscape:connector-curvature="0"
 id="path3883"
 d="M 451.111,756.436 451.111,850.88 432.222,860.325 C 422.269,828.246 405.781,801.976 432.222,737.547 z"
 style="fill:url(#linearGradient3899);fill-opacity:1;fill-rule:nonzero;stroke:none" />
<path
 sodipodi:nodetypes="cccc"
 inkscape:connector-curvature="0"
 id="path3881"
 d="M 451.111,756.436 C 470,775.325 470,784.769 470,801.769 470,822.547 470,831.991 451.111,850.88 438.83,819.399 436.652,787.917 451.111,756.436 z"
 style="fill:url(#linearGradient3907);fill-opacity:1;fill-rule:nonzero;stroke:none" />
<path
 sodipodi:nodetypes="cccccccccccc"
 inkscape:connector-curvature="0"
 id="path3956"
 d="M 26.111,709.213 45,709.213 63.889,728.102 C 142.593,716.59 221.296,703.651 300,699.769 336.862,701.182 369.815,696.539 432.222,737.547 448.805,755.423 468.632,769.987 470,801.769 469.981,839.311 449.579,848.598 432.222,860.325 405.613,873.194 391.432,888.499 300,888.658 232.404,884.478 159.2,879.229 63.889,869.769 L 45,888.658 26.111,888.658 C 8.12519,818.052 14.4982,762.06 26.111,709.213 z"
 style="fill:none;stroke:#000000;stroke-width:5.666667;stroke-miterlimit:4;stroke-opacity:1;stroke-dasharray:none" />
<path
 sodipodi:nodetypes="cccccccc"
 inkscape:connector-curvature="0"
 id="path3958"
 d="M 186.667,724.955 C 225.13,718.879 252.617,711.641 300,712.362 352.823,713.095 375.971,718.029 385,724.955 391.033,730.375 394.444,731.251 394.444,743.842 394.444,750.14 388.778,755.176 375.555,756.436 300.823,759.044 243.333,757.694 186.667,750.14 177.222,748.88 171.555,743.842 171.555,737.547 171.555,731.251 179.897,726.108 186.667,724.955 z"
 style="fill:#dadada;fill-opacity:0.870968;stroke:none" />
</g>
</g>
<g
 inkscape:groupmode="layer"
 id="layer2"
 inkscape:label="left"
 style="display:none">
<g
 id="g17523">
<path
 style="fill:#000000;fill-opacity:0.219608;fill-rule:nonzero;stroke:none"
 d="M 26.8908,18.7569 26.9562,27.3894 51.8071,27.3894 51.8398,40.1648 26.9562,40.2792 27.0216,48.5781 9.62599,34.5177 z"
 id="path17521"
 inkscape:connector-curvature="0"
 sodipodi:nodetypes="cccccccc" />
<path
 sodipodi:nodetypes="cccccccc"
 inkscape:connector-curvature="0"
 id="path3173"
 d="M 26.0953,17.7846 26.1607,26.4171 51.0116,26.4171 51.0443,39.1925 26.1607,39.3069 26.2261,47.6058 8.8305,33.5454 z"
 style="fill:#ffffff;fill-opacity:1;fill-rule:nonzero;stroke:#0072b8;stroke-width:0.5;stroke-miterlimit:4;stroke-opacity:1;stroke-dasharray:none" />
</g>
</g>
<g
 inkscape:groupmode="layer"
 id="layer3"
 inkscape:label="right"
 style="display:none">
<path
 style="fill:#000000;fill-opacity:0.219608;fill-rule:nonzero;stroke:none"
 d="M 39.1545,19.0069 39.0891,27.6394 14.2382,27.6394 14.2055,40.4148 39.0891,40.5292 39.0237,48.8281 56.4193,34.7677 z"
 id="path17529"
 inkscape:connector-curvature="0"
 sodipodi:nodetypes="cccccccc" />
<path
 sodipodi:nodetypes="cccccccc"
 inkscape:connector-curvature="0"
 id="path17531"
 d="M 38.575,18.0346 38.5096,26.6671 13.6587,26.6671 13.626,39.4425 38.5096,39.5569 38.4442,47.8558 55.8398,33.7954 z"
 style="fill:#ffffff;fill-opacity:1;fill-rule:nonzero;stroke:#0072b8;stroke-width:0.5;stroke-miterlimit:4;stroke-opacity:1;stroke-dasharray:none" />
</g>
<g
 inkscape:groupmode="layer"
 id="layer6"
 inkscape:label="tick"
 style="display:none">
<g
 id="g5058">
<path
 style="fill:#000000;fill-opacity:0.22043;fill-rule:nonzero;stroke:none;display:inline"
 d="M 33.0177,52.336 C 31.5547,49.3595 20.3114,41.1226 15.7806,40.4425 L 25.4089,35.4942 C 27.9414,38.6057 30.2359,41.0962 32.8958,43.7088 40.1331,26.4312 44.7527,19.9339 47.6693,16.6552 49.0954,21.2115 51.1522,24.8936 53.3576,28.5489 45.4177,32.3019 39.4207,43.0498 33.0177,52.336 z"
 id="path4973"
 inkscape:connector-curvature="0"
 sodipodi:nodetypes="ccccccc" />
<path
 sodipodi:nodetypes="ccccccc"
 inkscape:connector-curvature="0"
 id="path4971"
 d="M 32.1849,50.4971 C 30.6149,47.303 18.5498,38.464 13.6878,37.7342 L 24.0199,32.4242 C 26.7375,35.7632 29.1997,38.4357 32.0541,41.2393 39.8204,22.6988 44.7777,15.7266 47.9074,12.2082 49.4378,17.0976 51.6449,21.0488 54.0115,24.9712 45.4912,28.9985 39.0559,40.5322 32.1849,50.4971 z"
 style="fill:#ffffff;fill-opacity:1;fill-rule:nonzero;stroke:#0072b8;stroke-width:0.6;stroke-miterlimit:4;stroke-opacity:1;stroke-dasharray:none;display:inline" />
</g>
</g>
<g
 inkscape:groupmode="layer"
 id="layer10"
 inkscape:label="restart"
 style="display:none">
<path
 inkscape:connector-curvature="0"
 id="path3888"
 d="M 32.2261,9.9414 C 20.2646,9.7868 10.4398,19.3509 10.2852,31.3124 10.1305,43.274 19.6947,53.0987 31.6562,53.2533 L 31.7274,48.1956 C 22.7601,47.9637 15.6184,40.5936 15.7347,31.5973 15.8519,22.5288 23.3001,15.2739 32.3686,15.391 41.437,15.5083 48.6923,22.9207 48.575,31.9892 48.531,35.3866 47.4402,38.6705 45.4761,41.3924 L 39.8484,37.2963 40.4895,51.971 54.5589,47.9818 49.4654,44.2775 C 52.0691,40.6855 53.539,36.3817 53.5971,31.8823 53.7518,19.9208 44.1876,10.0962 32.2261,9.9414 z"
 style="fill:#000000;fill-opacity:0.219608;fill-rule:nonzero;stroke:none" />
<path
 style="fill:#ffffff;fill-opacity:1;fill-rule:nonzero;stroke:#0072b8;stroke-width:0.5;stroke-miterlimit:4;stroke-opacity:1;stroke-dasharray:none"
 d="M 31.7261,8.8164 C 19.7646,8.6618 9.93984,18.2259 9.78517,30.1874 9.6305,42.149 19.1947,51.9737 31.1562,52.1283 L 31.2274,47.0706 C 22.2601,46.8387 15.1184,39.4686 15.2347,30.4723 15.3519,21.4038 22.8001,14.1489 31.8686,14.266 40.937,14.3833 48.1923,21.7957 48.075,30.8642 48.031,34.2616 46.9402,37.5455 44.9761,40.2674 L 39.3484,36.1713 39.9895,50.846 54.0589,46.8568 48.9654,43.1525 C 51.5691,39.5605 53.039,35.2567 53.0971,30.7573 53.2518,18.7958 43.6876,8.9712 31.7261,8.8164 z"
 id="path3873"
 inkscape:connector-curvature="0" />
</g>
<g
 inkscape:groupmode="layer"
 id="layer11"
 inkscape:label="play"
 style="display:none">
<path
 inkscape:connector-curvature="0"
 id="path3903"
 d="M 25.9099,12.0349 25.9099,54.438 47.6673,33.7923 z"
 style="fill:#000000;fill-opacity:0.219608;fill-rule:nonzero;stroke:none" />
<path
 style="fill:#ffffff;fill-opacity:1;fill-rule:nonzero;stroke:#0072b8;stroke-width:0.5;stroke-miterlimit:4;stroke-opacity:1;stroke-dasharray:none"
 d="M 25.2849,10.6599 25.2849,53.063 47.0423,32.4173 z"
 id="path3899"
 inkscape:connector-curvature="0" />
</g>
<g
 inkscape:groupmode="layer"
 id="layer13"
 inkscape:label="next"
 style="display:none">
<path
 inkscape:connector-curvature="0"
 id="path3915"
 d="M 31.2878,13.7376 31.2878,24.28 18.5896,13.8522 18.5896,52.7275 31.2878,42.8153 31.2878,52.6129 55.5675,33.6766 31.2878,13.7376 z"
 style="fill:#000000;fill-opacity:0.219608;fill-rule:nonzero;stroke:none;display:inline" />
<path
 style="fill:#ffffff;fill-opacity:1;fill-rule:nonzero;stroke:#0072b8;stroke-width:0.505808;stroke-miterlimit:4;stroke-opacity:1;stroke-dasharray:none;display:inline"
 d="M 30.4039,12.6769 30.4039,23.2193 17.7057,12.7915 17.7057,51.6668 30.4039,41.7546 30.4039,51.5522 54.6836,32.6159 30.4039,12.6769 z"
 id="path3908"
 inkscape:connector-curvature="0" />
</g>
<g
 inkscape:groupmode="layer"
 id="layer14"
 inkscape:label="pause"
 style="display:none">
<rect
 ry="0"
 y="17.4259"
 x="20.8511"
 height="30.6606"
 width="9.07955"
 id="rect3922"
 style="fill:#000000;fill-opacity:0.219608;fill-rule:nonzero;stroke:none" />
<rect
 style="fill:#ffffff;fill-opacity:1;fill-rule:nonzero;stroke:#0072b8;stroke-width:0.80374;stroke-opacity:1"
 id="rect3918"
 width="9.07955"
 height="30.6606"
 x="19.9761"
 y="16.3009"
 ry="0" />
<rect
 style="fill:#000000;fill-opacity:0.219608;fill-rule:nonzero;stroke:none"
 id="rect3924"
 width="9.07955"
 height="30.6606"
 x="36.2261"
 y="17.3009"
 ry="0" />
<rect
 ry="0"
 y="16.3009"
 x="35.3468"
 height="30.6606"
 width="9.07955"
 id="rect3920"
 style="fill:#ffffff;fill-opacity:1;fill-rule:nonzero;stroke:#0072b8;stroke-width:0.80374;stroke-opacity:1" />
</g>
<g
 inkscape:groupmode="layer"
 id="layer7"
 inkscape:label="cross"
 style="display:none">
<g
 id="g5136"
 transform="matrix(0.850174,0,0,0.850174,4.67189,5.89436)">
<path
 style="fill:#000000;fill-opacity:0.22043;fill-rule:nonzero;stroke:none"
 d="M 22.7138,13.3362 14.4392,20.434 29.0745,33.5082 13.6679,45.0203 22.7138,53.6801 34.1689,39.7217 44.5783,54.0286 53.2015,46.4951 39.2634,33.5082 53.0757,19.8831 42.851,11.5491 34.1689,27.2947 z"
 id="path5070"
 inkscape:connector-curvature="0"
 sodipodi:nodetypes="ccccccccccccc" />
<path
 sodipodi:nodetypes="ccccccccccccc"
 inkscape:connector-curvature="0"
 id="rect5065"
 d="M 20.0938,10.6736 11.3129,18.2058 26.8438,32.0799 10.4944,44.2966 20.0938,53.4862 32.25,38.6736 43.2964,53.8561 52.4473,45.8615 38.5811,32.5423 52.3137,17.6211 41.4633,8.77709 32.25,25.4862 z"
 style="fill:#ffffff;fill-opacity:1;fill-rule:nonzero;stroke:#0072b8;stroke-width:0.6;stroke-miterlimit:4;stroke-opacity:1;stroke-dasharray:none" />
</g>
</g>
<g
 inkscape:groupmode="layer"
 id="layer15"
 inkscape:label="mail"
 style="display:none">
<rect
 y="22.6055"
 x="16.4196"
 height="20.8524"
 width="33.0163"
 id="rect6956-5"
 style="fill:#000000;fill-opacity:0.215686;fill-rule:nonzero;stroke:none;display:inline" />
<g
 id="g7474"
 transform="translate(-0.734655,-0.734655)">
<rect
 y="22.1244"
 x="16.1849"
 height="20.8524"
 width="33.0163"
 id="rect6956"
 style="fill:#ffffff;fill-opacity:1;fill-rule:nonzero;stroke:#0072b8;stroke-width:0.671032;stroke-linejoin:round;stroke-opacity:1" />
<path
 style="fill:#ffffff;fill-opacity:1;fill-rule:nonzero;stroke:#0072b8;stroke-width:0.596559;stroke-linejoin:round;stroke-miterlimit:4;stroke-opacity:1;stroke-dasharray:none"
 d="M 49.2439,42.9519 32.6438,26.4735 16.0984,42.9085 z"
 id="path7471"
 inkscape:connector-curvature="0"
 sodipodi:nodetypes="cccc" />
<path
 sodipodi:nodetypes="cssscc"
 inkscape:connector-curvature="0"
 id="rect7466"
 d="M 49.2439,22.0527 C 49.2439,22.0527 40.3627,31.7316 34.4859,36.8485 34.1007,37.1837 33.4994,37.2832 32.9888,37.2988 32.3956,37.3168 31.7883,37.238 31.3219,36.8702 25.5083,32.2857 16.0984,22.0961 16.0984,22.0961 z"
 style="fill:#ffffff;fill-opacity:1;fill-rule:nonzero;stroke:#0072b8;stroke-width:0.596559;stroke-linejoin:round;stroke-miterlimit:4;stroke-opacity:1;stroke-dasharray:none" />
</g>
</g>
<g
 inkscape:groupmode="layer"
 id="layer16"
 inkscape:label="scores"
 style="display:none">
<path
 inkscape:connector-curvature="0"
 id="path7544"
 d="M 32.9249,16.24 C 25.1289,16.2092 17.4582,16.2402 17.4582,16.4588 L 17.8839,18.4588 C 17.7505,18.2516 17.5105,18.1418 17.2881,18.115 16.0894,17.9716 14.8673,18.4293 13.3238,19.1462 12.9313,19.3286 12.5758,19.6099 12.4169,19.9275 11.1068,22.5397 11.1427,25.65 12.4169,28.2712 12.5744,28.5974 12.8926,28.9343 13.3238,29.0838 15.4891,29.8354 16.9784,29.3609 18.5367,29.0838 18.7891,29.0389 19.1135,29.0243 19.2461,28.8025 L 19.9555,29.3338 C 20.3097,30.3008 20.5964,30.9133 20.8352,31.2712 22.6868,34.048 26.9529,35.4824 30.9659,35.24 30.9659,35.24 30.4929,43.8213 30.5399,43.9275 L 27.0219,44.0525 C 25.5254,44.0977 24.3257,45.3733 24.3257,47.0212 24.1295,48.243 24.2037,49.6899 23.2757,49.615 21.5894,49.615 20.2393,51.1323 20.2393,52.99 20.2393,54.8477 21.7029,54.4275 23.3892,54.4275 L 32.9249,54.4275 33.4349,54.4275 42.9699,54.4275 C 44.6559,54.4275 46.1199,54.8477 46.1199,52.99 46.1199,51.1323 44.7699,49.615 43.0829,49.615 42.1549,49.6899 42.2299,48.243 42.0339,47.0212 42.0339,45.3733 40.8329,44.0977 39.3369,44.0525 L 35.8189,43.9275 C 35.8659,43.8213 35.3929,35.24 35.3929,35.24 39.4059,35.4824 43.6719,34.048 45.5229,31.2712 45.7619,30.9133 46.0489,30.3008 46.4029,29.3338 L 47.1119,28.8025 C 47.2449,29.0243 47.5699,29.0389 47.8229,29.0838 49.3809,29.3609 51.1379,29.8354 52.5609,29.0838 52.8439,28.9343 53.0539,28.5974 53.1579,28.2712 53.9949,25.65 54.0179,22.5397 53.1579,19.9275 53.0529,19.6099 52.8189,19.3286 52.5609,19.1462 51.5469,18.4293 50.2699,17.9716 49.0709,18.115 48.8489,18.1418 48.6079,18.2516 48.4749,18.4588 L 48.8999,16.4588 C 48.8999,16.2402 41.2299,16.2092 33.4349,16.24 33.2499,16.2407 33.1099,16.2392 32.9249,16.24 z M 16.2665,20.74 C 16.814,20.7384 17.3532,20.8405 17.8272,21.0838 18.007,21.1763 18.1564,21.3778 18.2245,21.5838 18.7721,23.2396 18.7721,25.2091 18.2245,26.865 18.1564,27.0711 18.007,27.2725 17.8272,27.365 16.8782,27.8515 16.1581,27.8382 14.7057,27.365 14.4237,27.273 14.2102,27.0747 14.1011,26.865 13.2373,25.217 13.2373,23.2318 14.1011,21.5838 14.2102,21.3741 14.4237,21.1758 14.7057,21.0838 15.4311,20.8472 15.7198,20.7417 16.2665,20.74 z M 50.0929,20.74 C 50.6389,20.7417 51.1759,20.8472 51.6529,21.0838 51.8379,21.1758 51.9789,21.3741 52.0509,21.5838 52.6179,23.2318 52.6179,25.217 52.0509,26.865 51.9789,27.0747 51.8379,27.273 51.6529,27.365 50.6989,27.8382 49.4809,27.8515 48.5319,27.365 48.3519,27.2725 48.2019,27.0711 48.1349,26.865 47.5859,25.2091 47.5859,23.2396 48.1349,21.5838 48.2019,21.3778 48.3519,21.1763 48.5319,21.0838 49.0059,20.8405 49.5449,20.7384 50.0929,20.74 z"
 style="fill:#000000;fill-opacity:0.219608;fill-rule:nonzero;stroke:none"
 sodipodi:nodetypes="cccccccccccccccccssccsscccccccccccccccccccccccccccccccccccccc" />
<path
 style="fill:#ffffff;fill-opacity:1;fill-rule:nonzero;stroke:#0072b8;stroke-width:0.668959;stroke-miterlimit:4;stroke-opacity:1;stroke-dasharray:none"
 d="M 31.8149,15.315 C 24.0189,15.2842 16.3482,15.3152 16.3482,15.5338 L 16.7739,17.5338 C 16.6405,17.3266 16.4005,17.2168 16.1781,17.19 14.9794,17.0466 13.7437,17.5043 12.0027,18.2212 11.5601,18.4036 11.1592,18.6849 10.9799,19.0025 9.5023,21.6147 9.54287,24.725 10.9799,27.3462 11.1575,27.6724 11.5166,28.0093 12.0027,28.1588 14.4449,28.9104 15.8684,28.4359 17.4267,28.1588 17.6791,28.1139 18.0035,28.0993 18.1361,27.8775 L 18.8455,28.4088 C 19.1997,29.3758 19.4864,29.9883 19.7252,30.3462 21.5768,33.123 25.8429,34.5574 29.8559,34.315 29.8559,34.315 29.3829,42.8963 29.4299,43.0025 L 25.9119,43.1275 C 24.4154,43.1727 23.2157,44.4483 23.2157,46.0962 23.0195,47.318 23.0937,48.7649 22.1657,48.69 20.4794,48.69 19.1293,50.2073 19.1293,52.065 19.1293,53.9227 20.5929,53.5025 22.2792,53.5025 L 31.8149,53.5025 32.3249,53.5025 41.8599,53.5025 C 43.5459,53.5025 45.0099,53.9227 45.0099,52.065 45.0099,50.2073 43.6599,48.69 41.9729,48.69 41.0449,48.7649 41.1199,47.318 40.9239,46.0962 40.9239,44.4483 39.7229,43.1727 38.2269,43.1275 L 34.7089,43.0025 C 34.7559,42.8963 34.2829,34.315 34.2829,34.315 38.2959,34.5574 42.5619,33.123 44.4129,30.3462 44.6519,29.9883 44.9389,29.3758 45.2929,28.4088 L 46.0019,27.8775 C 46.1349,28.0993 46.4599,28.1139 46.7129,28.1588 48.2709,28.4359 49.7146,28.9104 52.0033,28.1588 52.4584,28.0093 52.7962,27.6724 52.9635,27.3462 54.3096,24.725 54.3466,21.6147 52.9635,19.0025 52.7946,18.6849 52.4182,18.4036 52.0033,18.2212 50.3724,17.5043 49.1599,17.0466 47.9609,17.19 47.7389,17.2168 47.4979,17.3266 47.3649,17.5338 L 47.7899,15.5338 C 47.7899,15.3152 40.1199,15.2842 32.3249,15.315 32.1399,15.3157 31.9999,15.3142 31.8149,15.315 z M 15.1565,19.815 C 15.8559,19.8134 16.2432,19.9155 16.7172,20.1588 16.897,20.2513 17.0464,20.4528 17.1145,20.6588 17.6621,22.3146 17.6621,24.2841 17.1145,25.94 17.0464,26.1461 16.897,26.3475 16.7172,26.44 15.7682,26.9265 14.3819,26.9132 13.1627,26.44 12.926,26.348 12.7468,26.1497 12.6552,25.94 11.9302,24.292 11.9302,22.3068 12.6552,20.6588 12.7468,20.4491 12.926,20.2508 13.1627,20.1588 13.7717,19.9222 14.4581,19.8167 15.1565,19.815 z M 48.9829,19.815 C 49.5289,19.8167 49.7757,19.9222 50.5429,20.1588 50.8404,20.2508 51.0672,20.4491 51.183,20.6588 52.095,22.3068 52.095,24.292 51.183,25.94 51.0672,26.1497 50.8404,26.348 50.5429,26.44 49.0085,26.9132 48.3709,26.9265 47.4219,26.44 47.2419,26.3475 47.0919,26.1461 47.0249,25.94 46.4759,24.2841 46.4759,22.3146 47.0249,20.6588 47.0919,20.4528 47.2419,20.2513 47.4219,20.1588 47.8959,19.9155 48.4349,19.8134 48.9829,19.815 z"
 id="rect7498"
 inkscape:connector-curvature="0"
 sodipodi:nodetypes="cccccccccccccccccssccsscccccccccccccccccccccccccccccccccccccc" />
<rect
 ry="3.35329"
 y="20.0518"
 x="99.596"
 height="6.70658"
 width="29.7264"
 id="rect7519"
 style="fill:#ffffff;fill-opacity:1;fill-rule:nonzero;stroke:#0072b8;stroke-width:0.702;stroke-miterlimit:4;stroke-opacity:1;stroke-dasharray:none" />
<rect
 style="fill:#ffffff;fill-opacity:1;fill-rule:nonzero;stroke:#0072b8;stroke-width:0.543368;stroke-miterlimit:4;stroke-opacity:1;stroke-dasharray:none"
 id="rect7521"
 width="20.0754"
 height="5.94966"
 x="104.749"
 y="14.4792"
 ry="2.97483" />
<rect
 ry="0.800385"
 y="-3.55816"
 x="111.954"
 height="18.4816"
 width="5.66371"
 id="rect7523"
 style="fill:#ffffff;fill-opacity:1;fill-rule:nonzero;stroke:#0072b8;stroke-width:0.531651;stroke-linecap:butt;stroke-linejoin:round;stroke-miterlimit:4;stroke-opacity:1;stroke-dasharray:none" />
<rect
 ry="0.800734"
 y="-7.79185"
 x="98.565"
 height="12.5618"
 width="31.9193"
 id="rect7525"
 style="fill:#ffffff;fill-opacity:1;fill-rule:nonzero;stroke:#0072b8;stroke-width:0.696527;stroke-linecap:butt;stroke-linejoin:round;stroke-miterlimit:4;stroke-opacity:1;stroke-dasharray:none" />
<path
 id="path7527"
 d="M 91.506,-6.61355 C 91.061,-6.61355 90.694,-6.27745 90.694,-5.83235 L 90.694,2.54265 C 90.694,2.98775 91.061,3.35515 91.506,3.35515 L 98.037,3.35515 C 98.483,3.35515 98.85,2.98775 98.85,2.54265 L 98.85,-5.83235 C 98.85,-6.27745 98.483,-6.61355 98.037,-6.61355 L 91.506,-6.61355 z M 92.35,-5.01985 96.944,-5.01985 C 97.257,-5.01985 97.537,-4.77115 97.537,-4.45735 L 97.537,1.44885 C 97.537,1.76275 97.257,2.01145 96.944,2.01145 L 92.35,2.01145 C 92.036,2.01145 91.787,1.76275 91.787,1.44885 L 91.787,-4.45735 C 91.787,-4.77115 92.036,-5.01985 92.35,-5.01985 z"
 style="fill:#ffffff;fill-opacity:1;fill-rule:nonzero;stroke:#0072b8;stroke-width:0.667974;stroke-linecap:butt;stroke-linejoin:round;stroke-miterlimit:4;stroke-opacity:1;stroke-dasharray:none"
 inkscape:connector-curvature="0" />
<path
 inkscape:connector-curvature="0"
 style="fill:#ffffff;fill-opacity:1;fill-rule:nonzero;stroke:#0072b8;stroke-width:0.667974;stroke-linecap:butt;stroke-linejoin:round;stroke-miterlimit:4;stroke-opacity:1;stroke-dasharray:none"
 d="M 131.137,-6.48275 C 130.692,-6.48275 130.324,-6.14665 130.324,-5.70155 L 130.324,2.67345 C 130.324,3.11855 130.692,3.48595 131.137,3.48595 L 137.668,3.48595 C 138.113,3.48595 138.48,3.11855 138.48,2.67345 L 138.48,-5.70155 C 138.48,-6.14665 138.113,-6.48275 137.668,-6.48275 L 131.137,-6.48275 z M 131.98,-4.88905 136.574,-4.88905 C 136.888,-4.88905 137.168,-4.64035 137.168,-4.32655 L 137.168,1.57965 C 137.168,1.89355 136.888,2.14225 136.574,2.14225 L 131.98,2.14225 C 131.667,2.14225 131.418,1.89355 131.418,1.57965 L 131.418,-4.32655 C 131.418,-4.64035 131.667,-4.88905 131.98,-4.88905 z"
 id="path7529" />
<path
 sodipodi:nodetypes="sscsssssscssccsccssssccsccsccaaaaaaccssssssssssaaaaaaaaa"
 inkscape:connector-curvature="0"
 id="path7532"
 d="M 98.095,32.4215 C 97.652,32.4215 99.225,34.2702 99.225,34.7139 L 99.225,35.2763 C 99.081,35.1546 98.9,35.0889 98.694,35.0889 L 92.163,35.0889 C 91.718,35.0889 91.35,35.425 91.35,35.8701 L 91.35,44.2451 C 91.35,44.6902 91.718,45.0576 92.163,45.0576 L 98.694,45.0576 C 98.901,45.0576 99.081,44.9686 99.225,44.8389 L 99.225,45.6826 C 99.225,46.1262 99.756,46.2154 100.038,46.4639 103.635,49.6351 107.467,51.1978 112.403,51.3033 L 112.123,59.7384 C 112.125,59.8647 108.316,60.1064 108.316,60.1064 106.668,60.1064 105.347,61.4271 105.347,63.0751 105.097,64.4132 104.237,65.6032 103.535,65.6692 101.677,65.6692 100.191,67.1862 100.191,69.0442 100.191,70.9012 101.546,70.4912 103.404,70.4912 L 126.435,70.4912 C 128.292,70.4912 129.91,70.9012 129.91,69.0442 129.91,67.1862 128.423,65.6692 126.566,65.6692 125.544,65.7442 125.626,64.2972 125.41,63.0751 125.41,61.4271 124.088,60.1517 122.441,60.1064 L 118.567,60 C 118.619,59.8939 118.091,51.3033 118.091,51.3033 122.51,51.5456 127.2,50.1192 129.239,47.3425 129.502,46.9845 129.816,46.3721 130.206,45.4051 L 130.984,44.8702 C 131.13,45.0921 131.509,45.0915 131.787,45.1364 133.503,45.4135 135.435,45.8881 137.002,45.1364 137.314,44.9869 137.537,44.6537 137.651,44.3276 138.573,41.7063 138.598,38.6038 137.651,35.9915 137.536,35.674 137.286,35.3963 137.002,35.2139 135.885,34.497 134.48,34.024 133.16,34.1675 132.915,34.1942 132.651,34.3041 132.504,34.5112 L 132.957,32.5098 C 132.957,32.0661 98.095,32.4215 98.095,32.4215 z M 93.006,36.6826 97.6,36.6826 C 97.914,36.6826 98.194,36.9313 98.194,37.2451 L 98.194,43.1513 C 98.194,43.4653 97.914,43.7139 97.6,43.7139 L 93.006,43.7139 C 92.692,43.7139 92.444,43.4653 92.444,43.1513 L 92.444,37.2451 C 92.444,36.9313 92.692,36.6826 93.006,36.6826 z M 132.546,37.148 C 133.591,36.6615 134.952,36.6749 136.003,37.148 136.207,37.2401 136.369,37.442 136.448,37.6516 137.073,39.2997 137.073,41.2908 136.448,42.9388 136.369,43.1485 136.207,43.3504 136.003,43.4425 134.952,43.9156 133.591,43.929 132.546,43.4425 132.348,43.3499 132.198,43.1449 132.123,42.9388 131.52,41.2829 131.52,39.3075 132.123,37.6516 132.198,37.4456 132.348,37.2406 132.546,37.148 z"
 style="fill:#ffffff;fill-opacity:1;fill-rule:nonzero;stroke:#0072b8;stroke-width:0.702;stroke-miterlimit:4;stroke-opacity:1;stroke-dasharray:none" />
<path
 inkscape:connector-curvature="0"
 id="path7542"
 d="M 115.071,75.7581 C 107.275,75.7273 99.6046,75.7583 99.6046,75.9769 L 100.03,77.9769 C 99.8964,77.7697 99.6569,77.6599 99.4345,77.6331 98.2358,77.4897 97.0322,77.9474 95.3122,78.6643 94.8749,78.8467 94.4788,79.128 94.3017,79.4456 92.8419,82.0578 92.8819,85.1681 94.3017,87.7893 94.4773,88.1155 94.8318,88.4524 95.3122,88.6019 97.7251,89.3535 99.1248,88.879 100.683,88.6019 100.935,88.557 101.26,88.5424 101.392,88.3206 L 102.102,88.8519 C 102.456,89.8189 102.743,90.4314 102.981,90.7893 104.833,93.5661 109.099,95.0005 113.112,94.7581 113.112,94.7581 112.639,103.339 112.686,103.445 L 109.168,103.57 C 107.672,103.615 106.472,104.891 106.472,106.539 106.276,107.761 106.35,109.208 105.422,109.133 103.736,109.133 102.385,110.65 102.385,112.508 102.385,114.365 103.849,113.945 105.535,113.945 L 115.071,113.945 115.581,113.945 125.116,113.945 C 126.802,113.945 128.266,114.365 128.266,112.508 128.266,110.65 126.916,109.133 125.229,109.133 124.301,109.208 124.376,107.761 124.18,106.539 124.18,104.891 122.979,103.615 121.483,103.57 L 117.965,103.445 C 118.012,103.339 117.539,94.7581 117.539,94.7581 121.552,95.0005 125.818,93.5661 127.669,90.7893 127.908,90.4314 128.195,89.8189 128.549,88.8519 L 129.258,88.3206 C 129.391,88.5424 129.716,88.557 129.969,88.6019 131.527,88.879 132.926,89.3535 135.338,88.6019 135.818,88.4524 136.174,88.1155 136.35,87.7893 137.769,85.1681 137.808,82.0578 136.35,79.4456 136.172,79.128 135.776,78.8467 135.338,78.6643 133.619,77.9474 132.416,77.4897 131.217,77.6331 130.995,77.6599 130.754,77.7697 130.621,77.9769 L 131.046,75.9769 C 131.046,75.7583 123.376,75.7273 115.581,75.7581 115.396,75.7588 115.256,75.7573 115.071,75.7581 z M 98.4129,80.2581 C 98.9604,80.2565 99.4996,80.3586 99.9734,80.6019 100.153,80.6944 100.302,80.8959 100.37,81.1019 100.918,82.7577 100.918,84.7272 100.37,86.3831 100.302,86.5892 100.153,86.7906 99.9734,86.8831 99.0246,87.3696 98.4705,87.3563 96.8521,86.8831 96.5379,86.7911 96.3,86.5928 96.1784,86.3831 95.2159,84.7351 95.2159,82.7499 96.1784,81.1019 96.3,80.8922 96.5379,80.6939 96.8521,80.6019 97.6604,80.3653 97.8662,80.2598 98.4129,80.2581 z M 132.239,80.2581 C 132.785,80.2598 132.99,80.3653 133.799,80.6019 134.113,80.6939 134.352,80.8922 134.474,81.1019 135.435,82.7499 135.435,84.7351 134.474,86.3831 134.352,86.5928 134.113,86.7911 133.799,86.8831 132.182,87.3563 131.627,87.3696 130.678,86.8831 130.498,86.7906 130.348,86.5892 130.281,86.3831 129.732,84.7272 129.732,82.7577 130.281,81.1019 130.348,80.8959 130.498,80.6944 130.678,80.6019 131.152,80.3586 131.691,80.2565 132.239,80.2581 z"
 style="fill:#ffffff;fill-opacity:1;fill-rule:nonzero;stroke:#0072b8;stroke-width:0.668959;stroke-miterlimit:4;stroke-opacity:1;stroke-dasharray:none"
 sodipodi:nodetypes="cccccccccccccccccssccsscccccccccccccccccccccccccccccccccccccc" />
</g>
<g
 inkscape:groupmode="layer"
 id="layer17"
 inkscape:label="speakers"
 style="display:inline">
<rect
 style="fill:#ffffff;fill-opacity:1;stroke:#000000;stroke-width:0.272876;stroke-opacity:1"
 id="rect3954"
 width="13.1212"
 height="10.5306"
 x="98.4113"
 y="19.0584"
 ry="1.26494" />
<path
 style="fill:#000000;fill-opacity:0.219608;stroke:none"
 d="M 41.9381,10.3781 24.6881,25.9093 17.4694,25.9093 C 16.4286,25.9093 15.5631,26.7435 15.5631,27.7843 L 15.5631,39.6593 C 15.5631,40.7001 16.4286,41.5656 17.4694,41.5656 L 24.7506,41.5969 41.9381,56.5031 C 41.9381,56.5031 41.4195,46.5896 41.1256,39.3156 L 42.1256,39.3156 C 42.9134,39.3156 43.5631,38.6659 43.5631,37.8781 L 43.5631,28.9093 C 43.5631,28.1216 42.9134,27.4719 42.1256,27.4719 L 41.0318,27.4719 C 41.1771,21.9165 41.4862,17.4603 41.9381,10.3781 z"
 id="rect3982"
 inkscape:connector-curvature="0" />
<rect
 ry="1.42198"
 y="25.6455"
 x="27.497"
 height="11.838"
 width="14.7502"
 id="rect3956"
 style="fill:#ffffff;fill-opacity:1;stroke:#0072b8;stroke-width:0.868967;stroke-miterlimit:4;stroke-opacity:1;stroke-dasharray:none" />
<path
 style="fill:#ffffff;fill-opacity:1;stroke:#0072b8;stroke-width:0.789153;stroke-miterlimit:4;stroke-opacity:1;stroke-dasharray:none"
 d="M 40.6272,8.55361 23.3713,24.0876 16.1484,24.0876 C 15.1077,24.0876 14.6076,25.1488 14.2685,25.9676 12.754,29.6241 12.7539,34.1844 14.2685,37.8408 14.6076,38.6595 15.1077,39.7206 16.1484,39.7206 L 23.4504,39.7503 40.6272,54.661 C 40.6272,54.661 38.9752,38.2641 38.8422,32.1411 38.8705,22.7917 40.6272,8.55361 40.6272,8.55361 z"
 id="rect3136"
 inkscape:connector-curvature="0"
 sodipodi:nodetypes="ccsaascccc" />
<rect
 ry="2.96654"
 y="-12.3481"
 x="154.126"
 height="24.6963"
 width="38.9391"
 id="rect3909"
 style="fill:#ffffff;fill-opacity:1;stroke:#000000;stroke-width:0.719882;stroke-opacity:1" />
<path
 sodipodi:nodetypes="ccccccc"
 inkscape:connector-curvature="0"
 id="path3911"
 d="M 168.444,-12.2721 195.764,-36.8733 195.209,-7.67619 195.209,5.81254 195.764,35.9486 168.629,12.4573 z"
 style="fill:#ffffff;fill-opacity:1;stroke:#000000;stroke-width:0.872;stroke-linejoin:round;stroke-miterlimit:4;stroke-opacity:1;stroke-dasharray:none" />
<path
 sodipodi:nodetypes="ccsssscccc"
 inkscape:connector-curvature="0"
 id="path3923"
 d="M 109.722,3.85402 94.3713,17.6725 87.9461,17.6725 C 87.0203,17.6725 86.2738,18.419 86.2738,19.3448 L 86.2738,29.9068 C 86.2738,30.8326 87.0203,31.579 87.9461,31.579 L 94.4417,31.6054 109.722,44.8694 C 109.722,44.8694 108.95,30.3997 108.832,24.9529 108.857,16.636 109.174,12.4337 109.722,3.85402 z"
 style="fill:#ffffff;fill-opacity:1;stroke:#000000;stroke-width:0.405511;stroke-opacity:1" />
<g
 id="g3949"
 transform="translate(-30.1503,-36.9942)">
<path
 inkscape:connector-curvature="0"
 id="path3925"
 d="M 114.268,18.3935 114.268,18.5497 C 116.547,19.0527 118.259,20.9113 118.268,23.1435 118.278,25.4165 116.512,27.2977 114.174,27.7685 L 114.174,27.8935 C 114.215,27.8943 114.29,27.8935 114.331,27.8935 117.205,27.8912 119.529,25.7659 119.518,23.1435 119.507,20.5212 117.143,18.3913 114.268,18.3935 z"
 style="fill:#ffffff;fill-opacity:1;fill-rule:nonzero;stroke:#0072b8;stroke-width:0.13599;stroke-linecap:butt;stroke-linejoin:round;stroke-miterlimit:4;stroke-opacity:1;stroke-dasharray:none" />
<path
 style="fill:#ffffff;fill-opacity:1;fill-rule:nonzero;stroke:#0072b8;stroke-width:0.174752;stroke-linecap:butt;stroke-linejoin:round;stroke-miterlimit:4;stroke-opacity:1;stroke-dasharray:none"
 d="M 116.276,16.778 116.276,16.9787 C 119.205,17.6251 121.405,20.0135 121.416,22.8819 121.429,25.8028 119.16,28.2202 116.155,28.8252 L 116.155,28.9858 C 116.208,28.9868 116.304,28.9858 116.357,28.9858 120.05,28.9829 123.037,26.2518 123.023,22.8819 123.008,19.5122 119.971,16.7752 116.276,16.778 z"
 id="path3934"
 inkscape:connector-curvature="0" />
<path
 inkscape:connector-curvature="0"
 id="path3936"
 d="M 119.965,15.874 119.965,16.1012 C 123.282,16.8329 125.772,19.5367 125.784,22.7838 125.799,26.0904 123.23,28.8269 119.828,29.5118 L 119.828,29.6936 C 119.888,29.6947 119.997,29.6936 120.058,29.6936 124.238,29.6904 127.619,26.5986 127.603,22.7838 127.586,18.9692 124.149,15.8708 119.965,15.874 z"
 style="fill:#ffffff;fill-opacity:1;fill-rule:nonzero;stroke:#0072b8;stroke-width:0.197825;stroke-linecap:butt;stroke-linejoin:round;stroke-miterlimit:4;stroke-opacity:1;stroke-dasharray:none" />
</g>
<g
 id="g3944"
 transform="matrix(1.16795,0,0,1.16795,66.475,-48.7085)">
<path
 style="fill:#ffffff;fill-opacity:1;fill-rule:nonzero;stroke:#0072b8;stroke-width:0.436;stroke-linecap:butt;stroke-linejoin:round;stroke-miterlimit:4;stroke-opacity:1;stroke-dasharray:none"
 d="M 35.1375,28.4647 35.1375,28.6209 C 37.4165,29.1239 39.1285,30.9825 39.1375,33.2147 39.1475,35.4877 37.3815,37.3689 35.0435,37.8397 L 35.0435,37.9647 C 35.0845,37.9655 35.1595,37.9647 35.2005,37.9647 38.0745,37.9624 40.3985,35.8371 40.3875,33.2147 40.3765,30.5924 38.0125,28.4625 35.1375,28.4647 z"
 id="path3938"
 inkscape:connector-curvature="0" />
<path
 inkscape:connector-curvature="0"
 id="path3940"
 d="M 37.1455,26.8492 37.1455,27.0499 C 40.0745,27.6963 42.2745,30.0847 42.2855,32.9531 42.2985,35.874 40.0295,38.2914 37.0245,38.8964 L 37.0245,39.057 C 37.0775,39.058 37.1735,39.057 37.2265,39.057 40.9195,39.0541 43.9065,36.323 43.8925,32.9531 43.8775,29.5834 40.8405,26.8464 37.1455,26.8492 z"
 style="fill:#ffffff;fill-opacity:1;fill-rule:nonzero;stroke:#0072b8;stroke-width:0.475;stroke-linecap:butt;stroke-linejoin:round;stroke-miterlimit:4;stroke-opacity:1;stroke-dasharray:none" />
<path
 style="fill:#ffffff;fill-opacity:1;fill-rule:nonzero;stroke:#0072b8;stroke-width:0.498;stroke-linecap:butt;stroke-linejoin:round;stroke-miterlimit:4;stroke-opacity:1;stroke-dasharray:none"
 d="M 40.8345,25.9452 40.8345,26.1724 C 44.1515,26.9041 46.6415,29.6079 46.6535,32.855 46.6685,36.1616 44.0995,38.8981 40.6975,39.583 L 40.6975,39.7648 C 40.7575,39.7659 40.8665,39.7648 40.9275,39.7648 45.1075,39.7616 48.4885,36.6698 48.4725,32.855 48.4555,29.0404 45.0185,25.942 40.8345,25.9452 z"
 id="path3942"
 inkscape:connector-curvature="0" />
</g>
</g>
</svg>
