<?xml version="1.0" encoding="UTF-8" standalone="no"?>
<!-- Created with Inkscape (http://www.inkscape.org/) -->

<svg
 xmlns:dc="http://purl.org/dc/elements/1.1/"
 xmlns:cc="http://creativecommons.org/ns#"
 xmlns:rdf="http://www.w3.org/1999/02/22-rdf-syntax-ns#"
 xmlns:svg="http://www.w3.org/2000/svg"
 xmlns="http://www.w3.org/2000/svg"
 xmlns:sodipodi="http://sodipodi.sourceforge.net/DTD/sodipodi-0.dtd"
 xmlns:inkscape="http://www.inkscape.org/namespaces/inkscape"
 width="256"
 height="256"
 id="svg3151"
 version="1.1"
 inkscape:version="0.48.1 r9760"
 sodipodi:docname="square-button.svg">
<defs
 id="defs3153">
<filter
 inkscape:collect="always"
 id="filter3980">
<feGaussianBlur
 inkscape:collect="always"
 stdDeviation="0.780058"
 id="feGaussianBlur3982" />
</filter>
<filter
 inkscape:collect="always"
 id="filter3990">
<feGaussianBlur
 inkscape:collect="always"
 stdDeviation="0.836968"
 id="feGaussianBlur3992" />
</filter>
<filter
 inkscape:collect="always"
 id="filter4006">
<feGaussianBlur
 inkscape:collect="always"
 stdDeviation="1.08025"
 id="feGaussianBlur4008" />
</filter>
</defs>
<sodipodi:namedview
 id="base"
 pagecolor="#ffffff"
 bordercolor="#666666"
 borderopacity="1.0"
 inkscape:pageopacity="0.0"
 inkscape:pageshadow="2"
 inkscape:zoom="1.33798"
 inkscape:cx="252.324"
 inkscape:cy="129.249"
 inkscape:document-units="px"
 inkscape:current-layer="layer1"
 showgrid="false"
 inkscape:window-width="1440"
 inkscape:window-height="849"
 inkscape:window-x="0"
 inkscape:window-y="24"
 inkscape:window-maximized="1" />
<metadata
 id="metadata3156">
<rdf:RDF>
<cc:Work
 rdf:about="">
<dc:format>image/svg+xml</dc:format>
<dc:type
 rdf:resource="http://purl.org/dc/dcmitype/StillImage" />
<dc:title></dc:title>
</cc:Work>
</rdf:RDF>
</metadata>
<g
 inkscape:label="Layer 1"
 inkscape:groupmode="layer"
 id="layer1"
 transform="translate(0,-796.362)"
 style="display:none">
<rect
 style="fill:#0000ff;fill-opacity:1;fill-rule:nonzero;stroke:none;display:inline"
 id="rect3964"
 width="244.594"
 height="244.594"
 x="6.09152"
 y="802.263"
 ry="37.3358" />
<rect
 ry="32.9788"
 y="817.471"
 x="19.6335"
 height="216.051"
 width="216.051"
 id="rect3966"
 style="fill:none;stroke:#0000aa;stroke-width:3.398818;stroke-miterlimit:4;stroke-opacity:1;stroke-dasharray:none;display:inline;filter:url(#filter4006)" />
<path
 sodipodi:nodetypes="ssscscssss"
 inkscape:connector-curvature="0"
 id="path3968"
 d="M 51.8535,818.036 C 42.5945,818.036 34.8955,821.956 29.5115,828.191 24.1275,834.427 21.0585,842.976 21.0585,852.235 L 21.0585,910.798 C 21.0585,910.798 29.7695,875.839 128.21,876.604 225.254,877.358 234.214,911.326 234.214,911.326 L 234.214,852.763 C 234.214,843.505 231.284,834.823 226.04,828.456 220.796,822.088 213.237,818.036 203.979,818.036 z"
 style="fill:#ffffff;fill-opacity:0.392157;fill-rule:nonzero;stroke:none;display:inline" />
</g>
<g
 inkscape:groupmode="layer"
 id="layer2"
 inkscape:label="rectangle"
 style="display:inline">
<rect
 style="fill:#000000;fill-opacity:0.392157;fill-rule:nonzero;stroke:none;display:inline;filter:url(#filter3990)"
 id="rect3984"
 width="244.594"
 height="90.1934"
 x="7.58632"
 y="7.3958"
 ry="13.7675" />
<rect
 ry="13.7675"
 y="5.901"
 x="6.09152"
 height="90.1934"
 width="244.594"
 id="rect3971"
 style="fill:#ff7f2a;fill-opacity:1;fill-rule:nonzero;stroke:none;display:inline" />
<rect
 style="fill:none;stroke:#ff6600;stroke-width:2.140378;stroke-miterlimit:4;stroke-opacity:1;stroke-dasharray:none;display:inline;filter:url(#filter3980)"
 id="rect3973"
 width="232.355"
 height="79.6682"
 x="11.7114"
 y="11.5089"
 ry="12.1608" />
<path
 style="fill:#ffffff;fill-opacity:0.392157;fill-rule:nonzero;stroke:none;display:inline"
 d="M 46.1434,12.5099 C 36.1383,12.5099 25.5728,11.1809 19.755,13.4801 13.9372,15.7796 12.8669,20.9138 12.8669,24.328 L 12.8669,45.923 C 21.6683,36.4397 21.3569,36.2185 127.905,36.3036 232.469,36.3871 232.392,36.4328 243.198,46.1177 L 243.198,24.5227 C 243.198,21.1089 242.939,16.0577 237.273,13.5778 231.653,11.1182 220.531,12.5099 210.527,12.5099 z"
 id="path3975"
 inkscape:connector-curvature="0"
 sodipodi:nodetypes="ssscscssss" />
</g>
</svg>
